<?xml version="1.0" encoding="UTF-8" standalone="no"?>
<svg
   xmlns:dc="http://purl.org/dc/elements/1.1/"
   xmlns:cc="http://creativecommons.org/ns#"
   xmlns:rdf="http://www.w3.org/1999/02/22-rdf-syntax-ns#"
   xmlns:svg="http://www.w3.org/2000/svg"
   xmlns="http://www.w3.org/2000/svg"
   xmlns:sodipodi="http://sodipodi.sourceforge.net/DTD/sodipodi-0.dtd"
   xmlns:inkscape="http://www.inkscape.org/namespaces/inkscape"
   width="20"
   height="20"
   viewBox="0 0 5.2916665 5.2916665"
   version="1.1"
   id="svg324"
   inkscape:version="1.0.1 (3bc2e813f5, 2020-09-07)"
   sodipodi:docname="bold-2.svg">
  <defs
     id="defs318" />
  <sodipodi:namedview
     id="base"
     pagecolor="#ffffff"
     bordercolor="#666666"
     borderopacity="1.0"
     inkscape:pageopacity="0.0"
     inkscape:pageshadow="2"
     inkscape:zoom="16"
     inkscape:cx="17.392992"
     inkscape:cy="11.934343"
     inkscape:document-units="px"
     inkscape:current-layer="layer1"
     inkscape:document-rotation="0"
     showgrid="false"
     inkscape:pagecheckerboard="true"
     units="px"
     inkscape:window-width="1540"
     inkscape:window-height="861"
     inkscape:window-x="26"
     inkscape:window-y="0"
     inkscape:window-maximized="0" />
  <metadata
     id="metadata321">
    <rdf:RDF>
      <cc:Work
         rdf:about="">
        <dc:format>image/svg+xml</dc:format>
        <dc:type
           rdf:resource="http://purl.org/dc/dcmitype/StillImage" />
        <dc:title></dc:title>
      </cc:Work>
    </rdf:RDF>
  </metadata>
  <g
     inkscape:label="Calque 1"
     inkscape:groupmode="layer"
     id="layer1">
    <g
       aria-label="G"
       id="text328"
       style="font-style:normal;font-variant:normal;font-weight:normal;font-stretch:normal;font-size:4.23333px;line-height:1.25;font-family:Verdana;-inkscape-font-specification:Verdana;fill:#000000;fill-opacity:1;stroke:none;stroke-width:0.264583">
      <path
         d="m 3.9749484,3.9253421 q -0.2067055,0.080615 -0.5477697,0.1612303 -0.3410642,0.078548 -0.6800613,0.078548 -0.7854811,0 -1.229898,-0.4258134 -0.444417,-0.4278805 -0.444417,-1.1802887 0,-0.7172683 0.4485511,-1.1554841 0.448551,-0.44028284 1.2505686,-0.44028284 0.3038572,0 0.5787755,0.0558105 0.2749184,0.053743 0.6118485,0.2170408 V 1.9575052 H 3.8736627 Q 3.8157851,1.914097 3.7041641,1.8355489 3.5925431,1.7549337 3.4891904,1.6991232 3.3693011,1.6329775 3.2080708,1.5854352 3.0489075,1.5378929 2.8690737,1.5378929 q -0.2108397,0 -0.3824053,0.062012 Q 2.3151028,1.6619162 2.1786771,1.7900737 2.0484526,1.914097 1.9719716,2.1063332 1.8975576,2.2965023 1.8975576,2.546616 q 0,0.5105627 0.2707843,0.781347 0.2707842,0.2707843 0.7999505,0.2707843 0.045475,0 0.099219,-0.00207 0.05581,-0.00207 0.1012858,-0.0062 V 2.9868989 H 2.5548813 V 2.4060562 h 1.4200671 z"
         style="font-style:normal;font-variant:normal;font-weight:bold;font-stretch:normal;font-size:4.23333px;font-family:Verdana;-inkscape-font-specification:'Verdana Bold';stroke-width:0.264583"
         id="path1252" />
    </g>
  </g>
</svg>
