<?xml version="1.0" encoding="UTF-8" standalone="no"?>
<svg
   xmlns:dc="http://purl.org/dc/elements/1.1/"
   xmlns:cc="http://creativecommons.org/ns#"
   xmlns:rdf="http://www.w3.org/1999/02/22-rdf-syntax-ns#"
   xmlns:svg="http://www.w3.org/2000/svg"
   xmlns="http://www.w3.org/2000/svg"
   xmlns:sodipodi="http://sodipodi.sourceforge.net/DTD/sodipodi-0.dtd"
   xmlns:inkscape="http://www.inkscape.org/namespaces/inkscape"
   width="120mm"
   height="18mm"
   viewBox="0 0 120 18"
   version="1.1"
   id="svg8"
   inkscape:version="1.0.1 (3bc2e813f5, 2020-09-07)"
   sodipodi:docname="contact.svg">
  <defs
     id="defs2" />
  <sodipodi:namedview
     id="base"
     pagecolor="#ffffff"
     bordercolor="#666666"
     borderopacity="1.0"
     inkscape:pageopacity="0.0"
     inkscape:pageshadow="2"
     inkscape:zoom="0.98994949"
     inkscape:cx="287.86797"
     inkscape:cy="288.11912"
     inkscape:document-units="mm"
     inkscape:current-layer="text12"
     inkscape:document-rotation="0"
     showgrid="false"
     inkscape:window-width="1540"
     inkscape:window-height="861"
     inkscape:window-x="44"
     inkscape:window-y="0"
     inkscape:window-maximized="0"
     inkscape:pagecheckerboard="true" />
  <metadata
     id="metadata5">
    <rdf:RDF>
      <cc:Work
         rdf:about="">
        <dc:format>image/svg+xml</dc:format>
        <dc:type
           rdf:resource="http://purl.org/dc/dcmitype/StillImage" />
        <dc:title></dc:title>
      </cc:Work>
    </rdf:RDF>
  </metadata>
  <g
     inkscape:label="Calque 1"
     inkscape:groupmode="layer"
     id="layer1">
    <g
       aria-label="contact"
       transform="translate(-14.967093,-132.03115)"
       id="text12"
       style="font-style:normal;font-weight:normal;font-size:10.5833px;line-height:1.25;font-family:sans-serif;white-space:pre;inline-size:0;fill:#000000;fill-opacity:1;stroke:none;stroke-width:0.264583">
      <path
         d="m 25.300767,143.54975 q 0,0.0879 -0.0052,0.15503 -0.0052,0.062 -0.02067,0.10852 -0.01034,0.0413 -0.03101,0.0775 -0.0155,0.031 -0.08268,0.0982 -0.06201,0.062 -0.217041,0.1602 -0.155029,0.093 -0.351398,0.17053 -0.191203,0.0724 -0.418578,0.11886 -0.227376,0.0465 -0.470254,0.0465 -0.50126,0 -0.888832,-0.16537 -0.387572,-0.16536 -0.651121,-0.48059 -0.258381,-0.32039 -0.397907,-0.78031 -0.134359,-0.46508 -0.134359,-1.0697 0,-0.68729 0.165364,-1.17822 0.170532,-0.49609 0.459919,-0.81131 0.294555,-0.31523 0.687295,-0.46509 0.397907,-0.15503 0.857826,-0.15503 0.222208,0 0.428913,0.0413 0.211872,0.0413 0.387572,0.10852 0.175699,0.0672 0.310057,0.15503 0.139526,0.0879 0.201538,0.14986 0.06201,0.062 0.08268,0.0982 0.02584,0.0362 0.04134,0.0879 0.0155,0.0465 0.02067,0.10852 0.0052,0.062 0.0052,0.15503 0,0.20153 -0.04651,0.28422 -0.04651,0.0775 -0.113687,0.0775 -0.07751,0 -0.180867,-0.0827 -0.09819,-0.0879 -0.253214,-0.1912 -0.155029,-0.10336 -0.377237,-0.18604 -0.21704,-0.0879 -0.516763,-0.0879 -0.614947,0 -0.945675,0.47542 -0.325561,0.47026 -0.325561,1.36942 0,0.44959 0.08268,0.79065 0.08785,0.3359 0.253214,0.56327 0.165364,0.22738 0.403075,0.34107 0.242878,0.10852 0.552936,0.10852 0.294555,0 0.516763,-0.093 0.222208,-0.093 0.382404,-0.20154 0.165364,-0.11369 0.273884,-0.20154 0.113688,-0.093 0.1757,-0.093 0.03617,0 0.06201,0.0207 0.02584,0.0207 0.04134,0.0723 0.02067,0.0465 0.02584,0.12403 0.01034,0.0723 0.01034,0.1757 z"
         style="font-style:normal;font-variant:normal;font-weight:normal;font-stretch:normal;font-family:Calibri;-inkscape-font-specification:Calibri;stroke-width:0.264583"
         id="path14" />
      <path
         d="m 30.669932,141.8806 q 0,0.56844 -0.149861,1.04903 -0.149862,0.47542 -0.449584,0.82165 -0.294555,0.34623 -0.744138,0.5426 -0.444416,0.19121 -1.033526,0.19121 -0.573606,0 -1.002519,-0.17053 -0.423745,-0.17054 -0.707965,-0.4961 -0.284219,-0.32556 -0.423745,-0.79064 -0.139526,-0.46509 -0.139526,-1.0542 0,-0.56844 0.144693,-1.04386 0.149861,-0.48059 0.444416,-0.82682 0.299723,-0.34623 0.744138,-0.53743 0.444416,-0.19121 1.038693,-0.19121 0.573607,0 0.997352,0.17054 0.428913,0.17053 0.713133,0.49609 0.284219,0.32556 0.423745,0.79064 0.144694,0.46509 0.144694,1.04903 z m -0.899167,0.0569 q 0,-0.37724 -0.07235,-0.71314 -0.06718,-0.33589 -0.227376,-0.58911 -0.160196,-0.25321 -0.43408,-0.3979 -0.273884,-0.14986 -0.682127,-0.14986 -0.377237,0 -0.651121,0.13435 -0.268717,0.13436 -0.444416,0.38241 -0.175699,0.24288 -0.263549,0.57877 -0.08268,0.3359 -0.08268,0.73381 0,0.3824 0.06718,0.7183 0.07235,0.33589 0.232543,0.58911 0.165365,0.24804 0.439249,0.3979 0.273884,0.1447 0.682127,0.1447 0.372069,0 0.645953,-0.13436 0.273884,-0.13436 0.449583,-0.37724 0.1757,-0.24288 0.258382,-0.57877 0.08268,-0.3359 0.08268,-0.73897 z"
         style="font-style:normal;font-variant:normal;font-weight:normal;font-stretch:normal;font-family:Calibri;-inkscape-font-specification:Calibri;stroke-width:0.264583"
         id="path16" />
      <path
         d="m 35.930576,144.25771 q 0,0.0413 -0.02067,0.0724 -0.02067,0.0258 -0.06718,0.0465 -0.04651,0.0207 -0.12919,0.031 -0.08268,0.0103 -0.206705,0.0103 -0.129191,0 -0.211873,-0.0103 -0.08268,-0.0103 -0.129191,-0.031 -0.04651,-0.0207 -0.06718,-0.0465 -0.02067,-0.031 -0.02067,-0.0724 v -2.72334 q 0,-0.39791 -0.06201,-0.64078 -0.06201,-0.24288 -0.180867,-0.41858 -0.118855,-0.1757 -0.310057,-0.26872 -0.186035,-0.093 -0.434081,-0.093 -0.320393,0 -0.640786,0.22738 -0.320393,0.22738 -0.671791,0.66662 v 3.25044 q 0,0.0413 -0.02067,0.0724 -0.02067,0.0258 -0.06718,0.0465 -0.04651,0.0207 -0.129191,0.031 -0.08268,0.0103 -0.211872,0.0103 -0.124023,0 -0.206705,-0.0103 -0.08268,-0.0103 -0.134359,-0.031 -0.04651,-0.0207 -0.06718,-0.0465 -0.0155,-0.031 -0.0155,-0.0724 v -4.65086 q 0,-0.0413 0.0155,-0.0672 0.0155,-0.031 0.06201,-0.0517 0.04651,-0.0258 0.118855,-0.031 0.07235,-0.0103 0.191202,-0.0103 0.113688,0 0.186035,0.0103 0.07751,0.005 0.118855,0.031 0.04134,0.0207 0.05684,0.0517 0.02067,0.0258 0.02067,0.0672 v 0.61494 q 0.392739,-0.43924 0.780311,-0.64078 0.39274,-0.20671 0.790647,-0.20671 0.465087,0 0.780312,0.1602 0.320393,0.15503 0.516762,0.41858 0.19637,0.26355 0.279052,0.62011 0.08785,0.3514 0.08785,0.84749 z"
         style="font-style:normal;font-variant:normal;font-weight:normal;font-stretch:normal;font-family:Calibri;-inkscape-font-specification:Calibri;stroke-width:0.264583"
         id="path18" />
      <path
         d="m 39.806297,143.91665 q 0,0.14986 -0.02067,0.23771 -0.02067,0.0879 -0.06201,0.12919 -0.04134,0.0413 -0.124023,0.0775 -0.08268,0.0362 -0.191203,0.0568 -0.103352,0.0258 -0.222208,0.0413 -0.118855,0.0155 -0.23771,0.0155 -0.361734,0 -0.620116,-0.093 -0.258381,-0.0982 -0.423745,-0.28938 -0.165364,-0.19637 -0.242878,-0.49093 -0.07235,-0.29972 -0.07235,-0.70279 v -2.71818 h -0.651121 q -0.07751,0 -0.124023,-0.0827 -0.04651,-0.0827 -0.04651,-0.26871 0,-0.0982 0.01033,-0.16537 0.0155,-0.0672 0.03617,-0.10852 0.02067,-0.0465 0.05168,-0.062 0.03617,-0.0207 0.07751,-0.0207 h 0.645954 v -1.10587 q 0,-0.0362 0.0155,-0.0672 0.02067,-0.031 0.06718,-0.0517 0.05168,-0.0258 0.134358,-0.0362 0.08268,-0.0103 0.206705,-0.0103 0.129191,0 0.211873,0.0103 0.08268,0.0103 0.12919,0.0362 0.04651,0.0207 0.06718,0.0517 0.02067,0.031 0.02067,0.0672 v 1.10587 h 1.193722 q 0.04134,0 0.07235,0.0207 0.03101,0.0155 0.05168,0.062 0.02584,0.0413 0.03617,0.10852 0.01034,0.0672 0.01034,0.16537 0,0.18603 -0.04651,0.26871 -0.04651,0.0827 -0.124023,0.0827 h -1.193722 v 2.59415 q 0,0.48059 0.139526,0.72864 0.144694,0.24288 0.511595,0.24288 0.118856,0 0.211873,-0.0207 0.09302,-0.0258 0.165364,-0.0517 0.07235,-0.0258 0.124023,-0.0465 0.05168,-0.0258 0.09302,-0.0258 0.02584,0 0.04651,0.0155 0.02584,0.0103 0.03617,0.0465 0.0155,0.0362 0.02584,0.0982 0.01034,0.062 0.01034,0.15503 z"
         style="font-style:normal;font-variant:normal;font-weight:normal;font-stretch:normal;font-family:Calibri;-inkscape-font-specification:Calibri;stroke-width:0.264583"
         id="path20" />
      <path
         d="m 44.307298,144.26288 q 0,0.062 -0.04134,0.093 -0.04134,0.031 -0.113687,0.0465 -0.07235,0.0155 -0.211873,0.0155 -0.134358,0 -0.21704,-0.0155 -0.07751,-0.0155 -0.113688,-0.0465 -0.03617,-0.031 -0.03617,-0.093 v -0.46509 q -0.30489,0.32556 -0.682126,0.50643 -0.37207,0.18087 -0.790647,0.18087 -0.366902,0 -0.666624,-0.0982 -0.294555,-0.093 -0.506428,-0.27388 -0.206705,-0.18087 -0.32556,-0.44442 -0.113688,-0.26355 -0.113688,-0.59944 0,-0.39274 0.160197,-0.68213 0.160196,-0.28939 0.459918,-0.48059 0.299723,-0.1912 0.733803,-0.28422 0.434081,-0.0982 0.976682,-0.0982 h 0.640786 v -0.36174 q 0,-0.26871 -0.05684,-0.47542 -0.05684,-0.2067 -0.186035,-0.34106 -0.124023,-0.13953 -0.32556,-0.20671 -0.201538,-0.0723 -0.496093,-0.0723 -0.315225,0 -0.568439,0.0775 -0.248046,0.0724 -0.439248,0.16536 -0.186034,0.0879 -0.315225,0.16537 -0.124023,0.0724 -0.186035,0.0724 -0.04134,0 -0.07235,-0.0207 -0.03101,-0.0207 -0.05684,-0.062 -0.02067,-0.0413 -0.03101,-0.10335 -0.01033,-0.0672 -0.01033,-0.14469 0,-0.12919 0.0155,-0.20154 0.02067,-0.0775 0.08785,-0.14469 0.07235,-0.0672 0.242879,-0.15503 0.170531,-0.093 0.392739,-0.16537 0.222208,-0.0775 0.485757,-0.12402 0.263549,-0.0517 0.532266,-0.0517 0.50126,0 0.852658,0.11369 0.351399,0.11369 0.568439,0.3359 0.217041,0.21704 0.315225,0.5426 0.09819,0.32556 0.09819,0.75964 z m -0.84749,-2.1239 h -0.728636 q -0.351398,0 -0.60978,0.062 -0.258381,0.0568 -0.428913,0.1757 -0.170531,0.11368 -0.253214,0.27905 -0.07751,0.16019 -0.07751,0.37207 0,0.36173 0.227376,0.57877 0.232543,0.21187 0.645953,0.21187 0.335896,0 0.620115,-0.17053 0.289387,-0.17053 0.604613,-0.52193 z"
         style="font-style:normal;font-variant:normal;font-weight:normal;font-stretch:normal;font-family:Calibri;-inkscape-font-specification:Calibri;stroke-width:0.264583"
         id="path22" />
      <path
         d="m 49.216545,143.54975 q 0,0.0879 -0.0052,0.15503 -0.0052,0.062 -0.02067,0.10852 -0.01034,0.0413 -0.03101,0.0775 -0.0155,0.031 -0.08268,0.0982 -0.06201,0.062 -0.217041,0.1602 -0.155028,0.093 -0.351398,0.17053 -0.191202,0.0724 -0.418578,0.11886 -0.227376,0.0465 -0.470254,0.0465 -0.50126,0 -0.888832,-0.16537 -0.387572,-0.16536 -0.651121,-0.48059 -0.258381,-0.32039 -0.397907,-0.78031 -0.134358,-0.46508 -0.134358,-1.0697 0,-0.68729 0.165364,-1.17822 0.170531,-0.49609 0.459918,-0.81131 0.294555,-0.31523 0.687295,-0.46509 0.397907,-0.15503 0.857826,-0.15503 0.222208,0 0.428913,0.0413 0.211873,0.0413 0.387572,0.10852 0.175699,0.0672 0.310058,0.15503 0.139525,0.0879 0.201537,0.14986 0.06201,0.062 0.08268,0.0982 0.02584,0.0362 0.04134,0.0879 0.0155,0.0465 0.02067,0.10852 0.0052,0.062 0.0052,0.15503 0,0.20153 -0.04651,0.28422 -0.04651,0.0775 -0.113688,0.0775 -0.07751,0 -0.180867,-0.0827 -0.09819,-0.0879 -0.253214,-0.1912 -0.155029,-0.10336 -0.377237,-0.18604 -0.21704,-0.0879 -0.516762,-0.0879 -0.614948,0 -0.945676,0.47542 -0.325561,0.47026 -0.325561,1.36942 0,0.44959 0.08268,0.79065 0.08785,0.3359 0.253214,0.56327 0.165364,0.22738 0.403075,0.34107 0.242879,0.10852 0.552936,0.10852 0.294555,0 0.516763,-0.093 0.222208,-0.093 0.382404,-0.20154 0.165364,-0.11369 0.273884,-0.20154 0.113688,-0.093 0.1757,-0.093 0.03617,0 0.06201,0.0207 0.02584,0.0207 0.04134,0.0723 0.02067,0.0465 0.02584,0.12403 0.01034,0.0723 0.01034,0.1757 z"
         style="font-style:normal;font-variant:normal;font-weight:normal;font-stretch:normal;font-family:Calibri;-inkscape-font-specification:Calibri;stroke-width:0.264583"
         id="path24" />
      <path
         d="m 52.766704,143.91665 q 0,0.14986 -0.02067,0.23771 -0.02067,0.0879 -0.06201,0.12919 -0.04134,0.0413 -0.124023,0.0775 -0.08268,0.0362 -0.191202,0.0568 -0.103353,0.0258 -0.222208,0.0413 -0.118856,0.0155 -0.237711,0.0155 -0.361734,0 -0.620115,-0.093 -0.258382,-0.0982 -0.423746,-0.28938 -0.165364,-0.19637 -0.242878,-0.49093 -0.07235,-0.29972 -0.07235,-0.70279 v -2.71818 h -0.651121 q -0.07751,0 -0.124023,-0.0827 -0.04651,-0.0827 -0.04651,-0.26871 0,-0.0982 0.01034,-0.16537 0.0155,-0.0672 0.03617,-0.10852 0.02067,-0.0465 0.05168,-0.062 0.03617,-0.0207 0.07751,-0.0207 h 0.645953 v -1.10587 q 0,-0.0362 0.0155,-0.0672 0.02067,-0.031 0.06718,-0.0517 0.05168,-0.0258 0.134358,-0.0362 0.08268,-0.0103 0.206705,-0.0103 0.129191,0 0.211873,0.0103 0.08268,0.0103 0.129191,0.0362 0.04651,0.0207 0.06718,0.0517 0.02067,0.031 0.02067,0.0672 v 1.10587 h 1.193722 q 0.04134,0 0.07235,0.0207 0.03101,0.0155 0.05168,0.062 0.02584,0.0413 0.03617,0.10852 0.01033,0.0672 0.01033,0.16537 0,0.18603 -0.04651,0.26871 -0.04651,0.0827 -0.124023,0.0827 H 51.40245 v 2.59415 q 0,0.48059 0.139526,0.72864 0.144694,0.24288 0.511595,0.24288 0.118856,0 0.211873,-0.0207 0.09302,-0.0258 0.165364,-0.0517 0.07235,-0.0258 0.124023,-0.0465 0.05168,-0.0258 0.09302,-0.0258 0.02584,0 0.04651,0.0155 0.02584,0.0103 0.03617,0.0465 0.0155,0.0362 0.02584,0.0982 0.01033,0.062 0.01033,0.15503 z"
         style="font-style:normal;font-variant:normal;font-weight:normal;font-stretch:normal;font-family:Calibri;-inkscape-font-specification:Calibri;stroke-width:0.264583"
         id="path26" />
      <path
         d="m 61.66019,140.413 q 0,0.3514 -0.04651,0.7183 -0.04134,0.3669 -0.139526,0.71313 -0.09818,0.34623 -0.258381,0.65629 -0.160196,0.30489 -0.392739,0.53743 -0.232544,0.23254 -0.542601,0.3669 -0.30489,0.12919 -0.702798,0.12919 -0.211872,0 -0.392739,-0.0465 -0.180867,-0.0517 -0.320393,-0.14469 -0.139526,-0.093 -0.237711,-0.23771 -0.09302,-0.14986 -0.129191,-0.34106 -0.206705,0.2067 -0.403074,0.35656 -0.191203,0.1447 -0.377237,0.23771 -0.186035,0.093 -0.366902,0.13436 -0.175699,0.0413 -0.346231,0.0413 -0.222208,0 -0.392739,-0.0413 -0.170532,-0.0465 -0.30489,-0.12919 -0.129191,-0.0879 -0.222208,-0.21187 -0.09302,-0.12402 -0.155029,-0.27905 -0.06201,-0.15503 -0.08785,-0.34107 -0.02584,-0.18603 -0.02584,-0.40307 0,-0.22221 0.03617,-0.50643 0.03617,-0.28939 0.118855,-0.59428 0.08268,-0.30489 0.227376,-0.59427 0.144693,-0.29456 0.356566,-0.52193 0.21704,-0.23255 0.511595,-0.37207 0.294555,-0.1447 0.687294,-0.1447 0.165364,0 0.315225,0.0413 0.155029,0.0362 0.294555,0.11885 0.139526,0.0827 0.268717,0.20671 0.12919,0.12402 0.263549,0.29455 l 0.08785,-0.45475 q 0.02067,-0.0724 0.09302,-0.10852 0.07235,-0.0362 0.268716,-0.0362 0.09302,0 0.155029,0.0103 0.06718,0.0103 0.103353,0.031 0.03617,0.0155 0.04651,0.0413 0.0155,0.0258 0.0052,0.062 l -0.459919,2.37711 q -0.08268,0.44958 0.04134,0.66662 0.124023,0.21187 0.470254,0.21187 0.211873,0 0.382404,-0.10335 0.170532,-0.10852 0.299723,-0.28939 0.129191,-0.18086 0.21704,-0.41857 0.08785,-0.24288 0.144694,-0.50643 0.05684,-0.26872 0.08268,-0.54777 0.02584,-0.27905 0.02584,-0.53743 0,-0.44959 -0.124023,-0.85266 -0.118856,-0.40824 -0.41341,-0.71313 -0.294555,-0.31006 -0.790647,-0.49093 -0.490925,-0.18603 -1.235063,-0.18603 -0.60978,0 -1.085202,0.13436 -0.475421,0.13435 -0.837155,0.3669 -0.361734,0.22737 -0.620115,0.5271 -0.258382,0.29972 -0.439249,0.64078 -0.175699,0.3359 -0.284219,0.69246 -0.10852,0.3514 -0.165364,0.68213 -0.05684,0.32556 -0.07751,0.61495 -0.0155,0.28938 -0.0155,0.49092 0,0.57361 0.12919,1.04903 0.134359,0.47542 0.459919,0.82165 0.32556,0.34623 0.873329,0.53744 0.547768,0.1912 1.379756,0.1912 0.377237,0 0.682127,-0.0465 0.30489,-0.0413 0.527098,-0.093 0.227376,-0.0465 0.366901,-0.093 0.139526,-0.0413 0.191203,-0.0413 0.03101,0 0.05168,0.0155 0.02584,0.0207 0.03617,0.0568 0.0155,0.0413 0.02067,0.0982 0.0052,0.062 0.0052,0.14986 0,0.0723 -0.0052,0.11885 0,0.0465 -0.01033,0.0827 -0.01034,0.0413 -0.03101,0.0724 -0.0155,0.031 -0.04651,0.0568 -0.03101,0.0258 -0.180867,0.0775 -0.144693,0.0517 -0.397907,0.10335 -0.248046,0.0517 -0.583942,0.0879 -0.335896,0.0362 -0.738971,0.0362 -0.966346,0 -1.638137,-0.22738 -0.666624,-0.22738 -1.090369,-0.65112 -0.418578,-0.42375 -0.604613,-1.01802 -0.186034,-0.59428 -0.186034,-1.32808 0,-0.26872 0.02584,-0.61495 0.03101,-0.3514 0.10852,-0.74414 0.08268,-0.39791 0.227376,-0.80615 0.144693,-0.41341 0.372069,-0.80615 0.232543,-0.39274 0.558103,-0.73897 0.330728,-0.3514 0.775144,-0.60978 0.449584,-0.26355 1.02319,-0.41341 0.578775,-0.14986 1.30741,-0.14986 0.847491,0 1.462438,0.2067 0.620116,0.20154 1.023191,0.57361 0.403074,0.37207 0.599444,0.9095 0.19637,0.53227 0.19637,1.18856 z m -2.997223,0.33589 q -0.19637,-0.33073 -0.403075,-0.50642 -0.206705,-0.1757 -0.470254,-0.1757 -0.217041,0 -0.39274,0.10852 -0.175699,0.10335 -0.30489,0.27388 -0.129191,0.16536 -0.222208,0.37724 -0.08785,0.21187 -0.144694,0.43408 -0.05684,0.22221 -0.08268,0.43408 -0.02067,0.2067 -0.02067,0.3669 0,0.3824 0.134358,0.58911 0.139526,0.2067 0.465087,0.2067 0.124023,0 0.253213,-0.0413 0.129191,-0.0465 0.273885,-0.13435 0.144693,-0.093 0.30489,-0.23772 0.165364,-0.14986 0.361733,-0.35139 z m -5.560367,-3.0489 z"
         style="font-style:normal;font-variant:normal;font-weight:normal;font-stretch:normal;font-family:Calibri;-inkscape-font-specification:Calibri;stroke-width:0.264583"
         id="path28" />
      <path
         d="m 70.253952,144.25771 q 0,0.0413 -0.02067,0.0724 -0.02067,0.0258 -0.06718,0.0465 -0.04651,0.0207 -0.129191,0.031 -0.08268,0.0103 -0.206705,0.0103 -0.129191,0 -0.211873,-0.0103 -0.08268,-0.0103 -0.134358,-0.031 -0.04651,-0.0207 -0.06718,-0.0465 -0.02067,-0.031 -0.02067,-0.0724 v -2.82669 q 0,-0.29456 -0.05168,-0.53743 -0.05168,-0.24288 -0.165364,-0.41858 -0.113688,-0.1757 -0.289387,-0.26872 -0.175699,-0.093 -0.41341,-0.093 -0.294555,0 -0.594277,0.22738 -0.294555,0.22738 -0.651121,0.66662 v 3.25044 q 0,0.0413 -0.02067,0.0724 -0.02067,0.0258 -0.07235,0.0465 -0.04651,0.0207 -0.12919,0.031 -0.08268,0.0103 -0.206705,0.0103 -0.118856,0 -0.206705,-0.0103 -0.08268,-0.0103 -0.134359,-0.031 -0.04651,-0.0207 -0.06718,-0.0465 -0.0155,-0.031 -0.0155,-0.0724 v -2.82669 q 0,-0.29456 -0.05684,-0.53743 -0.05684,-0.24288 -0.170531,-0.41858 -0.113688,-0.1757 -0.289387,-0.26872 -0.170532,-0.093 -0.408243,-0.093 -0.294555,0 -0.594277,0.22738 -0.299722,0.22738 -0.651121,0.66662 v 3.25044 q 0,0.0413 -0.02067,0.0724 -0.02067,0.0258 -0.06718,0.0465 -0.04651,0.0207 -0.12919,0.031 -0.08268,0.0103 -0.211873,0.0103 -0.124023,0 -0.206705,-0.0103 -0.08268,-0.0103 -0.134358,-0.031 -0.04651,-0.0207 -0.06718,-0.0465 -0.0155,-0.031 -0.0155,-0.0724 v -4.65086 q 0,-0.0413 0.0155,-0.0672 0.0155,-0.031 0.06201,-0.0517 0.04651,-0.0258 0.118855,-0.031 0.07235,-0.0103 0.191203,-0.0103 0.113687,0 0.186034,0.0103 0.07752,0.005 0.118856,0.031 0.04134,0.0207 0.05684,0.0517 0.02067,0.0258 0.02067,0.0672 v 0.61494 q 0.39274,-0.43924 0.759641,-0.64078 0.372069,-0.20671 0.749306,-0.20671 0.289387,0 0.516763,0.0672 0.232543,0.0672 0.408242,0.19121 0.1757,0.11885 0.299723,0.28938 0.124023,0.16537 0.206705,0.37207 0.232543,-0.25321 0.439248,-0.42891 0.211873,-0.1757 0.403075,-0.28422 0.19637,-0.10852 0.377237,-0.15503 0.186034,-0.0517 0.372069,-0.0517 0.449583,0 0.754473,0.1602 0.30489,0.15503 0.490925,0.41858 0.191202,0.26355 0.268716,0.62011 0.08268,0.3514 0.08268,0.74414 z"
         style="font-style:normal;font-variant:normal;font-weight:normal;font-stretch:normal;font-family:Calibri;-inkscape-font-specification:Calibri;stroke-width:0.264583"
         id="path30" />
      <path
         d="m 75.31306,144.26288 q 0,0.062 -0.04134,0.093 -0.04134,0.031 -0.113687,0.0465 -0.07235,0.0155 -0.211873,0.0155 -0.134358,0 -0.21704,-0.0155 -0.07751,-0.0155 -0.113688,-0.0465 -0.03617,-0.031 -0.03617,-0.093 v -0.46509 q -0.30489,0.32556 -0.682126,0.50643 -0.372069,0.18087 -0.790647,0.18087 -0.366902,0 -0.666624,-0.0982 -0.294555,-0.093 -0.506427,-0.27388 -0.206706,-0.18087 -0.325561,-0.44442 -0.113688,-0.26355 -0.113688,-0.59944 0,-0.39274 0.160197,-0.68213 0.160196,-0.28939 0.459918,-0.48059 0.299723,-0.1912 0.733803,-0.28422 0.434081,-0.0982 0.976682,-0.0982 h 0.640786 v -0.36174 q 0,-0.26871 -0.05684,-0.47542 -0.05684,-0.2067 -0.186035,-0.34106 -0.124023,-0.13953 -0.32556,-0.20671 -0.201538,-0.0723 -0.496092,-0.0723 -0.315226,0 -0.568439,0.0775 -0.248046,0.0724 -0.439249,0.16536 -0.186034,0.0879 -0.315225,0.16537 -0.124023,0.0724 -0.186034,0.0724 -0.04134,0 -0.07235,-0.0207 -0.03101,-0.0207 -0.05684,-0.062 -0.02067,-0.0413 -0.03101,-0.10335 -0.01033,-0.0672 -0.01033,-0.14469 0,-0.12919 0.0155,-0.20154 0.02067,-0.0775 0.08785,-0.14469 0.07235,-0.0672 0.242879,-0.15503 0.170532,-0.093 0.392739,-0.16537 0.222208,-0.0775 0.485757,-0.12402 0.263549,-0.0517 0.532266,-0.0517 0.50126,0 0.852658,0.11369 0.351399,0.11369 0.568439,0.3359 0.217041,0.21704 0.315226,0.5426 0.09818,0.32556 0.09818,0.75964 z m -0.84749,-2.1239 h -0.728636 q -0.351398,0 -0.60978,0.062 -0.258381,0.0568 -0.428913,0.1757 -0.170531,0.11368 -0.253213,0.27905 -0.07751,0.16019 -0.07751,0.37207 0,0.36173 0.227376,0.57877 0.232543,0.21187 0.645953,0.21187 0.335896,0 0.620115,-0.17053 0.289387,-0.17053 0.604613,-0.52193 z"
         style="font-style:normal;font-variant:normal;font-weight:normal;font-stretch:normal;font-family:Calibri;-inkscape-font-specification:Calibri;stroke-width:0.264583"
         id="path32" />
      <path
         d="m 79.199115,143.91665 q 0,0.14986 -0.02067,0.23771 -0.02067,0.0879 -0.06201,0.12919 -0.04134,0.0413 -0.124023,0.0775 -0.08268,0.0362 -0.191202,0.0568 -0.103353,0.0258 -0.222208,0.0413 -0.118856,0.0155 -0.237711,0.0155 -0.361734,0 -0.620115,-0.093 -0.258382,-0.0982 -0.423746,-0.28938 -0.165364,-0.19637 -0.242878,-0.49093 -0.07235,-0.29972 -0.07235,-0.70279 v -2.71818 h -0.651121 q -0.07751,0 -0.124023,-0.0827 -0.04651,-0.0827 -0.04651,-0.26871 0,-0.0982 0.01033,-0.16537 0.0155,-0.0672 0.03617,-0.10852 0.02067,-0.0465 0.05168,-0.062 0.03617,-0.0207 0.07752,-0.0207 h 0.645953 v -1.10587 q 0,-0.0362 0.0155,-0.0672 0.02067,-0.031 0.06718,-0.0517 0.05168,-0.0258 0.134359,-0.0362 0.08268,-0.0103 0.206705,-0.0103 0.12919,0 0.211872,0.0103 0.08268,0.0103 0.129191,0.0362 0.04651,0.0207 0.06718,0.0517 0.02067,0.031 0.02067,0.0672 v 1.10587 h 1.193721 q 0.04134,0 0.07235,0.0207 0.03101,0.0155 0.05168,0.062 0.02584,0.0413 0.03617,0.10852 0.01034,0.0672 0.01034,0.16537 0,0.18603 -0.04651,0.26871 -0.04651,0.0827 -0.124023,0.0827 h -1.193721 v 2.59415 q 0,0.48059 0.139526,0.72864 0.144693,0.24288 0.511595,0.24288 0.118855,0 0.211872,-0.0207 0.09302,-0.0258 0.165364,-0.0517 0.07235,-0.0258 0.124023,-0.0465 0.05168,-0.0258 0.09302,-0.0258 0.02584,0 0.04651,0.0155 0.02584,0.0103 0.03617,0.0465 0.0155,0.0362 0.02584,0.0982 0.01034,0.062 0.01034,0.15503 z"
         style="font-style:normal;font-variant:normal;font-weight:normal;font-stretch:normal;font-family:Calibri;-inkscape-font-specification:Calibri;stroke-width:0.264583"
         id="path34" />
      <path
         d="m 84.330567,144.25771 q 0,0.0413 -0.02067,0.0724 -0.02067,0.0258 -0.06718,0.0465 -0.04651,0.0207 -0.12919,0.031 -0.08268,0.0103 -0.206705,0.0103 -0.129191,0 -0.211873,-0.0103 -0.08268,-0.0103 -0.129191,-0.031 -0.04651,-0.0207 -0.06718,-0.0465 -0.02067,-0.031 -0.02067,-0.0724 v -2.72334 q 0,-0.39791 -0.06201,-0.64078 -0.06201,-0.24288 -0.180867,-0.41858 -0.118855,-0.1757 -0.310057,-0.26872 -0.186035,-0.093 -0.434081,-0.093 -0.320393,0 -0.640786,0.22738 -0.320393,0.22738 -0.671791,0.66662 v 3.25044 q 0,0.0413 -0.02067,0.0724 -0.02067,0.0258 -0.06718,0.0465 -0.04651,0.0207 -0.129191,0.031 -0.08268,0.0103 -0.211872,0.0103 -0.124023,0 -0.206705,-0.0103 -0.08268,-0.0103 -0.134359,-0.031 -0.04651,-0.0207 -0.06718,-0.0465 -0.0155,-0.031 -0.0155,-0.0724 v -6.90395 q 0,-0.0413 0.0155,-0.0723 0.02067,-0.031 0.06718,-0.0517 0.05168,-0.0207 0.134359,-0.031 0.08268,-0.0103 0.206705,-0.0103 0.12919,0 0.211872,0.0103 0.08268,0.0103 0.129191,0.031 0.04651,0.0207 0.06718,0.0517 0.02067,0.031 0.02067,0.0723 v 2.78535 q 0.366901,-0.38757 0.73897,-0.5736 0.372069,-0.19121 0.749306,-0.19121 0.465087,0 0.780312,0.1602 0.320393,0.15503 0.516763,0.41858 0.196369,0.26355 0.279051,0.62011 0.08785,0.3514 0.08785,0.85266 z"
         style="font-style:normal;font-variant:normal;font-weight:normal;font-stretch:normal;font-family:Calibri;-inkscape-font-specification:Calibri;stroke-width:0.264583"
         id="path36" />
      <path
         d="m 88.604196,139.91174 q 0,0.11368 -0.0052,0.1912 -0.0052,0.0775 -0.02067,0.12402 -0.0155,0.0413 -0.04134,0.0672 -0.02067,0.0207 -0.06201,0.0207 -0.04134,0 -0.103353,-0.0207 -0.05684,-0.0258 -0.134358,-0.0465 -0.07235,-0.0258 -0.165364,-0.0465 -0.09302,-0.0207 -0.201537,-0.0207 -0.129191,0 -0.253214,0.0517 -0.124023,0.0517 -0.263549,0.17053 -0.134358,0.11886 -0.28422,0.31523 -0.149861,0.19637 -0.330728,0.48059 v 3.05923 q 0,0.0413 -0.02067,0.0724 -0.02067,0.0258 -0.06718,0.0465 -0.04651,0.0207 -0.129191,0.031 -0.08268,0.0103 -0.211873,0.0103 -0.124023,0 -0.206705,-0.0103 -0.08268,-0.0103 -0.134358,-0.031 -0.04651,-0.0207 -0.06718,-0.0465 -0.0155,-0.031 -0.0155,-0.0724 v -4.65086 q 0,-0.0413 0.0155,-0.0672 0.0155,-0.031 0.06201,-0.0517 0.04651,-0.0258 0.118856,-0.031 0.07235,-0.0103 0.191202,-0.0103 0.113688,0 0.186034,0.0103 0.07751,0.005 0.118856,0.031 0.04134,0.0207 0.05684,0.0517 0.02067,0.0258 0.02067,0.0672 v 0.67696 q 0.191202,-0.27906 0.356567,-0.45475 0.170531,-0.1757 0.320392,-0.27389 0.149862,-0.10335 0.294555,-0.13953 0.149861,-0.0413 0.299722,-0.0413 0.06718,0 0.149862,0.0103 0.08785,0.005 0.180867,0.0258 0.09302,0.0207 0.165364,0.0465 0.07751,0.0258 0.10852,0.0517 0.03101,0.0258 0.04134,0.0517 0.01033,0.0207 0.0155,0.0568 0.01033,0.0362 0.01033,0.10852 0.0052,0.0672 0.0052,0.18604 z"
         style="font-style:normal;font-variant:normal;font-weight:normal;font-stretch:normal;font-family:Calibri;-inkscape-font-specification:Calibri;stroke-width:0.264583"
         id="path38" />
      <path
         d="m 92.862323,144.26288 q 0,0.062 -0.04134,0.093 -0.04134,0.031 -0.113687,0.0465 -0.07235,0.0155 -0.211873,0.0155 -0.134358,0 -0.21704,-0.0155 -0.07751,-0.0155 -0.113688,-0.0465 -0.03617,-0.031 -0.03617,-0.093 v -0.46509 q -0.30489,0.32556 -0.682126,0.50643 -0.372069,0.18087 -0.790647,0.18087 -0.366902,0 -0.666624,-0.0982 -0.294555,-0.093 -0.506427,-0.27388 -0.206706,-0.18087 -0.325561,-0.44442 -0.113688,-0.26355 -0.113688,-0.59944 0,-0.39274 0.160197,-0.68213 0.160196,-0.28939 0.459918,-0.48059 0.299723,-0.1912 0.733803,-0.28422 0.434081,-0.0982 0.976682,-0.0982 h 0.640786 v -0.36174 q 0,-0.26871 -0.05684,-0.47542 -0.05684,-0.2067 -0.186035,-0.34106 -0.124023,-0.13953 -0.32556,-0.20671 -0.201538,-0.0723 -0.496092,-0.0723 -0.315226,0 -0.568439,0.0775 -0.248046,0.0724 -0.439249,0.16536 -0.186034,0.0879 -0.315225,0.16537 -0.124023,0.0724 -0.186034,0.0724 -0.04134,0 -0.07235,-0.0207 -0.03101,-0.0207 -0.05684,-0.062 -0.02067,-0.0413 -0.03101,-0.10335 -0.01034,-0.0672 -0.01034,-0.14469 0,-0.12919 0.0155,-0.20154 0.02067,-0.0775 0.08785,-0.14469 0.07235,-0.0672 0.242879,-0.15503 0.170532,-0.093 0.392739,-0.16537 0.222208,-0.0775 0.485757,-0.12402 0.263549,-0.0517 0.532266,-0.0517 0.50126,0 0.852658,0.11369 0.351399,0.11369 0.568439,0.3359 0.217041,0.21704 0.315226,0.5426 0.09818,0.32556 0.09818,0.75964 z m -0.84749,-2.1239 h -0.728636 q -0.351398,0 -0.60978,0.062 -0.258381,0.0568 -0.428913,0.1757 -0.170531,0.11368 -0.253213,0.27905 -0.07752,0.16019 -0.07752,0.37207 0,0.36173 0.227376,0.57877 0.232543,0.21187 0.645953,0.21187 0.335896,0 0.620115,-0.17053 0.289387,-0.17053 0.604613,-0.52193 z"
         style="font-style:normal;font-variant:normal;font-weight:normal;font-stretch:normal;font-family:Calibri;-inkscape-font-specification:Calibri;stroke-width:0.264583"
         id="path40" />
      <path
         d="m 95.280766,144.25771 q 0,0.0413 -0.02067,0.0724 -0.02067,0.0258 -0.06718,0.0465 -0.04651,0.0207 -0.12919,0.031 -0.08268,0.0103 -0.211873,0.0103 -0.124023,0 -0.206705,-0.0103 -0.08268,-0.0103 -0.134358,-0.031 -0.04651,-0.0207 -0.06718,-0.0465 -0.0155,-0.031 -0.0155,-0.0724 v -4.65086 q 0,-0.0362 0.0155,-0.0672 0.02067,-0.031 0.06718,-0.0517 0.05168,-0.0207 0.134358,-0.031 0.08268,-0.0103 0.206705,-0.0103 0.129191,0 0.211873,0.0103 0.08268,0.0103 0.12919,0.031 0.04651,0.0207 0.06718,0.0517 0.02067,0.031 0.02067,0.0672 z m 0.09819,-6.22182 q 0,0.29972 -0.113688,0.40824 -0.113688,0.10852 -0.418578,0.10852 -0.299722,0 -0.41341,-0.10335 -0.10852,-0.10852 -0.10852,-0.40308 0,-0.29972 0.113688,-0.40824 0.113688,-0.10852 0.418578,-0.10852 0.299722,0 0.408242,0.10852 0.113688,0.10335 0.113688,0.39791 z"
         style="font-style:normal;font-variant:normal;font-weight:normal;font-stretch:normal;font-family:Calibri;-inkscape-font-specification:Calibri;stroke-width:0.264583"
         id="path42" />
      <path
         d="m 100.86181,144.25771 q 0,0.0413 -0.0207,0.0724 -0.0207,0.0258 -0.0672,0.0465 -0.0465,0.0207 -0.12919,0.031 -0.0827,0.0103 -0.20671,0.0103 -0.12919,0 -0.21187,-0.0103 -0.0827,-0.0103 -0.12919,-0.031 -0.0465,-0.0207 -0.0672,-0.0465 -0.0207,-0.031 -0.0207,-0.0724 v -2.72334 q 0,-0.39791 -0.06201,-0.64078 -0.06201,-0.24288 -0.180867,-0.41858 -0.118856,-0.1757 -0.310058,-0.26872 -0.186034,-0.093 -0.434081,-0.093 -0.320392,0 -0.640785,0.22738 -0.320393,0.22738 -0.671792,0.66662 v 3.25044 q 0,0.0413 -0.02067,0.0724 -0.02067,0.0258 -0.06718,0.0465 -0.04651,0.0207 -0.129191,0.031 -0.08268,0.0103 -0.211873,0.0103 -0.124023,0 -0.206705,-0.0103 -0.08268,-0.0103 -0.134358,-0.031 -0.04651,-0.0207 -0.06718,-0.0465 -0.0155,-0.031 -0.0155,-0.0724 v -4.65086 q 0,-0.0413 0.0155,-0.0672 0.0155,-0.031 0.06201,-0.0517 0.04651,-0.0258 0.118856,-0.031 0.07235,-0.0103 0.191202,-0.0103 0.113688,0 0.186034,0.0103 0.07751,0.005 0.118856,0.031 0.04134,0.0207 0.05684,0.0517 0.02067,0.0258 0.02067,0.0672 v 0.61494 q 0.39274,-0.43924 0.780312,-0.64078 0.39274,-0.20671 0.790647,-0.20671 0.465086,0 0.780311,0.1602 0.320389,0.15503 0.516759,0.41858 0.19637,0.26355 0.27906,0.62011 0.0879,0.3514 0.0879,0.84749 z"
         style="font-style:normal;font-variant:normal;font-weight:normal;font-stretch:normal;font-family:Calibri;-inkscape-font-specification:Calibri;stroke-width:0.264583"
         id="path44" />
      <path
         d="m 103.26992,144.25771 q 0,0.0413 -0.0207,0.0724 -0.0207,0.0258 -0.0672,0.0465 -0.0465,0.0207 -0.12919,0.031 -0.0827,0.0103 -0.21188,0.0103 -0.12402,0 -0.2067,-0.0103 -0.0827,-0.0103 -0.13436,-0.031 -0.0465,-0.0207 -0.0672,-0.0465 -0.0155,-0.031 -0.0155,-0.0724 v -4.65086 q 0,-0.0362 0.0155,-0.0672 0.0207,-0.031 0.0672,-0.0517 0.0517,-0.0207 0.13436,-0.031 0.0827,-0.0103 0.2067,-0.0103 0.12919,0 0.21188,0.0103 0.0827,0.0103 0.12919,0.031 0.0465,0.0207 0.0672,0.0517 0.0207,0.031 0.0207,0.0672 z m 0.0982,-6.22182 q 0,0.29972 -0.11369,0.40824 -0.11368,0.10852 -0.41857,0.10852 -0.29973,0 -0.41341,-0.10335 -0.10852,-0.10852 -0.10852,-0.40308 0,-0.29972 0.11368,-0.40824 0.11369,-0.10852 0.41858,-0.10852 0.29972,0 0.40824,0.10852 0.11369,0.10335 0.11369,0.39791 z"
         style="font-style:normal;font-variant:normal;font-weight:normal;font-stretch:normal;font-family:Calibri;-inkscape-font-specification:Calibri;stroke-width:0.264583"
         id="path46" />
      <path
         d="m 108.85096,144.25771 q 0,0.0413 -0.0207,0.0724 -0.0207,0.0258 -0.0672,0.0465 -0.0465,0.0207 -0.12919,0.031 -0.0827,0.0103 -0.20671,0.0103 -0.12919,0 -0.21187,-0.0103 -0.0827,-0.0103 -0.12919,-0.031 -0.0465,-0.0207 -0.0672,-0.0465 -0.0207,-0.031 -0.0207,-0.0724 v -2.72334 q 0,-0.39791 -0.062,-0.64078 -0.062,-0.24288 -0.18087,-0.41858 -0.11886,-0.1757 -0.31006,-0.26872 -0.18603,-0.093 -0.43408,-0.093 -0.32039,0 -0.64078,0.22738 -0.3204,0.22738 -0.6718,0.66662 v 3.25044 q 0,0.0413 -0.0207,0.0724 -0.0207,0.0258 -0.0672,0.0465 -0.0465,0.0207 -0.12919,0.031 -0.0827,0.0103 -0.21187,0.0103 -0.12402,0 -0.2067,-0.0103 -0.0827,-0.0103 -0.13436,-0.031 -0.0465,-0.0207 -0.0672,-0.0465 -0.0155,-0.031 -0.0155,-0.0724 v -4.65086 q 0,-0.0413 0.0155,-0.0672 0.0155,-0.031 0.062,-0.0517 0.0465,-0.0258 0.11886,-0.031 0.0723,-0.0103 0.1912,-0.0103 0.11369,0 0.18603,0.0103 0.0775,0.005 0.11886,0.031 0.0413,0.0207 0.0568,0.0517 0.0207,0.0258 0.0207,0.0672 v 0.61494 q 0.39274,-0.43924 0.78031,-0.64078 0.39274,-0.20671 0.79065,-0.20671 0.46509,0 0.78031,0.1602 0.3204,0.15503 0.51677,0.41858 0.19636,0.26355 0.27905,0.62011 0.0879,0.3514 0.0879,0.84749 z"
         style="font-style:normal;font-variant:normal;font-weight:normal;font-stretch:normal;font-family:Calibri;-inkscape-font-specification:Calibri;stroke-width:0.264583"
         id="path48" />
      <path
         d="m 114.29246,139.81872 q 0,0.18087 -0.0517,0.26355 -0.0465,0.0775 -0.12402,0.0775 h -0.66663 q 0.18087,0.18604 0.25322,0.41341 0.0723,0.22221 0.0723,0.46509 0,0.40307 -0.12919,0.71313 -0.12919,0.31006 -0.37207,0.5271 -0.23771,0.21187 -0.56844,0.32556 -0.33072,0.11369 -0.7338,0.11369 -0.28422,0 -0.5426,-0.0724 -0.25321,-0.0775 -0.39274,-0.1912 -0.093,0.093 -0.15503,0.21187 -0.0568,0.11886 -0.0568,0.27389 0,0.18086 0.16536,0.29972 0.17053,0.11885 0.44958,0.12919 l 1.2144,0.0517 q 0.34623,0.0103 0.63562,0.0982 0.28938,0.0827 0.50126,0.24288 0.21187,0.15503 0.33072,0.38757 0.11886,0.22738 0.11886,0.53227 0,0.32039 -0.13436,0.60978 -0.13436,0.28938 -0.41341,0.50642 -0.27388,0.22221 -0.7028,0.34623 -0.42891,0.1292 -1.01285,0.1292 -0.56327,0 -0.96118,-0.0982 -0.39274,-0.093 -0.64595,-0.25838 -0.25322,-0.16536 -0.36691,-0.39791 -0.11368,-0.22737 -0.11368,-0.49609 0,-0.17053 0.0413,-0.33073 0.0413,-0.16019 0.12402,-0.30489 0.0879,-0.14469 0.21187,-0.27388 0.12919,-0.13436 0.29456,-0.26355 -0.25322,-0.12919 -0.37724,-0.32556 -0.11885,-0.19637 -0.11885,-0.42375 0,-0.31522 0.12919,-0.56327 0.12919,-0.24804 0.32039,-0.44441 -0.1602,-0.19121 -0.25321,-0.42892 -0.093,-0.24288 -0.093,-0.58394 0,-0.39791 0.13436,-0.71313 0.13436,-0.31523 0.37207,-0.53227 0.23771,-0.21704 0.56844,-0.33073 0.33589,-0.11885 0.72863,-0.11885 0.21187,0 0.39274,0.0258 0.18603,0.0207 0.34623,0.062 h 1.4056 q 0.0879,0 0.12919,0.0879 0.0465,0.0827 0.0465,0.25838 z m -1.33324,1.22473 q 0,-0.47542 -0.26355,-0.73897 -0.25838,-0.26872 -0.73897,-0.26872 -0.24805,0 -0.43408,0.0827 -0.18087,0.0827 -0.30489,0.22738 -0.11886,0.14469 -0.18087,0.33589 -0.0568,0.18604 -0.0568,0.39274 0,0.45992 0.25838,0.72347 0.26355,0.26355 0.7338,0.26355 0.25321,0 0.43925,-0.0775 0.18603,-0.0827 0.30489,-0.22221 0.12402,-0.1447 0.18087,-0.33073 0.062,-0.18604 0.062,-0.38757 z m 0.42891,3.68452 q 0,-0.29973 -0.24805,-0.45992 -0.24287,-0.16537 -0.66145,-0.1757 l -1.20406,-0.0413 q -0.16536,0.12919 -0.27388,0.24804 -0.10336,0.11369 -0.16537,0.21704 -0.062,0.10852 -0.0878,0.21188 -0.0207,0.10335 -0.0207,0.21187 0,0.33589 0.34107,0.50643 0.34106,0.17569 0.95084,0.17569 0.38757,0 0.64595,-0.0775 0.26355,-0.0724 0.42375,-0.19637 0.16019,-0.12402 0.22737,-0.28422 0.0724,-0.1602 0.0724,-0.33589 z"
         style="font-style:normal;font-variant:normal;font-weight:normal;font-stretch:normal;font-family:Calibri;-inkscape-font-specification:Calibri;stroke-width:0.264583"
         id="path50" />
      <path
         d="m 116.48871,143.82363 q 0,0.3669 -0.12402,0.49093 -0.11886,0.11885 -0.43925,0.11885 -0.31006,0 -0.42891,-0.11885 -0.11886,-0.11886 -0.11886,-0.47543 0,-0.3669 0.11886,-0.48575 0.12402,-0.12403 0.44441,-0.12403 0.31006,0 0.42892,0.11886 0.11885,0.11885 0.11885,0.47542 z"
         style="font-style:normal;font-variant:normal;font-weight:normal;font-stretch:normal;font-family:Calibri;-inkscape-font-specification:Calibri;stroke-width:0.264583"
         id="path52" />
      <path
         d="m 122.33846,141.87027 q 0,0.60461 -0.13435,1.09037 -0.1292,0.48059 -0.38758,0.82165 -0.25321,0.34106 -0.62528,0.52193 -0.37207,0.18087 -0.85266,0.18087 -0.22221,0 -0.41341,-0.0465 -0.18603,-0.0413 -0.3669,-0.13953 -0.18087,-0.0982 -0.36173,-0.24804 -0.18087,-0.14987 -0.38241,-0.36174 v 0.56844 q 0,0.0413 -0.0207,0.0724 -0.0207,0.031 -0.0672,0.0517 -0.0465,0.0155 -0.11885,0.0258 -0.0672,0.0103 -0.1757,0.0103 -0.10335,0 -0.1757,-0.0103 -0.0724,-0.0103 -0.11886,-0.0258 -0.0465,-0.0207 -0.062,-0.0517 -0.0155,-0.031 -0.0155,-0.0724 v -6.90395 q 0,-0.0413 0.0155,-0.0723 0.0207,-0.031 0.0672,-0.0517 0.0517,-0.0207 0.13436,-0.031 0.0827,-0.0103 0.2067,-0.0103 0.12919,0 0.21188,0.0103 0.0827,0.0103 0.12919,0.031 0.0465,0.0207 0.0672,0.0517 0.0207,0.031 0.0207,0.0723 v 2.78535 q 0.2067,-0.21187 0.3979,-0.35656 0.19637,-0.1447 0.38241,-0.23255 0.18603,-0.093 0.37207,-0.13436 0.18603,-0.0413 0.39274,-0.0413 0.50643,0 0.86299,0.20154 0.36174,0.20154 0.58394,0.5426 0.22738,0.3359 0.33073,0.79065 0.10335,0.45475 0.10335,0.96118 z m -0.89916,0.0982 q 0,-0.35656 -0.0568,-0.69246 -0.0517,-0.3359 -0.18603,-0.59428 -0.13436,-0.25838 -0.35657,-0.41341 -0.22221,-0.16019 -0.55293,-0.16019 -0.16537,0 -0.32556,0.0465 -0.1602,0.0465 -0.32556,0.15502 -0.16537,0.10852 -0.34624,0.27906 -0.1757,0.17053 -0.37723,0.42891 v 1.85518 q 0.3514,0.42891 0.67179,0.65629 0.32039,0.2222 0.66662,0.2222 0.3204,0 0.54777,-0.15503 0.22738,-0.15502 0.3669,-0.40824 0.1447,-0.25838 0.20671,-0.5736 0.0672,-0.3204 0.0672,-0.64596 z"
         style="font-style:normal;font-variant:normal;font-weight:normal;font-stretch:normal;font-family:Calibri;-inkscape-font-specification:Calibri;stroke-width:0.264583"
         id="path54" />
      <path
         d="m 127.58877,141.73074 q 0,0.20154 -0.10335,0.28939 -0.0982,0.0827 -0.22738,0.0827 h -3.0489 q 0,0.38757 0.0775,0.69763 0.0775,0.31006 0.25838,0.53227 0.18086,0.2222 0.47025,0.34106 0.28939,0.11885 0.70797,0.11885 0.33072,0 0.58911,-0.0517 0.25838,-0.0568 0.44441,-0.12402 0.1912,-0.0672 0.31006,-0.11886 0.12402,-0.0568 0.18603,-0.0568 0.0362,0 0.062,0.0207 0.031,0.0155 0.0465,0.0517 0.0155,0.0362 0.0207,0.10336 0.0103,0.062 0.0103,0.15502 0,0.0672 -0.005,0.11886 -0.005,0.0465 -0.0155,0.0879 -0.005,0.0362 -0.0258,0.0672 -0.0155,0.031 -0.0465,0.062 -0.0258,0.0258 -0.16536,0.093 -0.13953,0.062 -0.36174,0.12402 -0.2222,0.062 -0.51676,0.10852 -0.28938,0.0517 -0.62011,0.0517 -0.57361,0 -1.00769,-0.1602 -0.42891,-0.1602 -0.72347,-0.47542 -0.29455,-0.31523 -0.44441,-0.79065 -0.14986,-0.47542 -0.14986,-1.10587 0,-0.59945 0.15502,-1.07487 0.15503,-0.48059 0.44442,-0.81131 0.29455,-0.3359 0.70796,-0.5116 0.41341,-0.18087 0.92501,-0.18087 0.54777,0 0.93017,0.1757 0.38757,0.1757 0.63562,0.47542 0.24805,0.29456 0.36173,0.69763 0.11886,0.39791 0.11886,0.85266 z m -0.85783,-0.25321 q 0.0155,-0.67179 -0.29972,-1.0542 -0.31006,-0.3824 -0.925,-0.3824 -0.31523,0 -0.55294,0.11885 -0.23771,0.11886 -0.39791,0.31523 -0.16019,0.19637 -0.24804,0.45992 -0.0878,0.25838 -0.0982,0.5426 z"
         style="font-style:normal;font-variant:normal;font-weight:normal;font-stretch:normal;font-family:Calibri;-inkscape-font-specification:Calibri;stroke-width:0.264583"
         id="path56" />
    </g>
  </g>
</svg>
