<svg xmlns="http://www.w3.org/2000/svg" viewBox="0 0 291.8 223.8"><path fill="#EB2135" d="M214.3 44.8c.9-4.6.1-8.9-2.3-12.2-2.1-2.8-6.3-6.1-14.2-5.8-6.3.3-11.7 4.1-16.9 7.9.1-.8.2-1.6.2-2.4 0-4.3-1.6-8.3-4.5-11.2-2.7-2.6-6.1-4.1-9.7-4.1-3.1 0-6 1-8.3 2.9-1.1-7.1-6.5-17.3-12.8-19.9-5.9 2.4-11.4 12.8-12.4 19.9-2.3-1.9-5.2-2.9-8.3-2.9-3.6 0-7.1 1.5-9.7 4.1-2.9 2.9-4.5 6.9-4.5 11.2 0 .9.1 1.8.3 2.7-5.2-4-10.8-8-17.2-8.2-8-.3-12.1 2.9-14.2 5.8-2.5 3.3-3.3 7.7-2.4 12.2C31.4 60.8 0 92.3 0 128.7c0 52.5 65.3 95.1 145.9 95.1 80.6 0 145.9-42.6 145.9-95.1 0-36.4-31.4-67.9-77.5-83.9"/><path fill="#B62B33" d="M72.2 62h-.9c-26.5 1.6-27.5 33.1-24.7 51.5.1.6.6.9 1.1.9.5 0 1-.3 1-1 1.7-29.7 22.2-41.2 30.1-41.2h.2c3.5.1 8.1 1.6 11.4 4 .3.2.5.3.8.3.7 0 1.2-.7.7-1.7C88.6 68.7 80.6 62 72.2 62m5.3 35.6h-1c-26.5 1.6-26 37.3-18.6 53.1.2.4.6.6 1 .6.6 0 1.2-.5 1-1.2-5.5-23.3 9.8-39.9 26.7-39.9 3 0 5.5 1.2 8.3 2.7.3.2.6.2.8.2.7 0 1.2-.6.8-1.6-3.1-7.8-10.6-13.9-19-13.9m8.1 34.2c-9.1 0-20.5 3.9-21.7 15.2-1.7 15.6 19.2 31.7 38.8 34.8h.3c1.3 0 1.5-1.6.4-2-16.8-6.3-23.5-21.2-23.5-30.1 0-7.6 4.4-13.9 8.1-15.8 1.1-.5.8-2-.5-2.1h-1.9M13 120.2c-.3 0-.6.1-.9.4-2.6 2.5-4.7 8.5-4.9 12.3-1.5 27.8 42.5 26.5 59.6 41.9.3.2.5.3.8.3.8 0 1.4-.9.7-1.8-16.4-21.3-58.6-33.5-54.4-51.8.2-.8-.3-1.3-.9-1.3m24.3-39.5H37C22.1 83.2 18 94 18.3 101c.8 20.7 19.5 28 29.1 44.9.2.4.6.6 1 .6.6 0 1.2-.6.9-1.5-4.8-13.7-16.9-35.5-17.5-50.5-.2-4.3 3.1-10.4 6.1-12 1-.4.6-1.8-.6-1.8M219.5 62c-8.4 0-16.4 6.6-19.6 12.8-.5 1 0 1.7.7 1.7.2 0 .5-.1.8-.3 3.3-2.4 7.9-3.9 11.4-4h.2c7.9 0 28.4 11.5 30.1 41.2 0 .7.5 1 1 1s1-.3 1-.9c2.8-18.4 1.8-49.9-24.7-51.5-.3.1-.6 0-.9 0m-5.4 35.6c-8.4 0-15.8 6-18.9 13.9-.4 1.1.1 1.6.8 1.6.3 0 .5-.1.8-.2 2.7-1.5 5.2-2.7 8.2-2.7 17 0 32.2 16.6 26.7 39.9-.2.8.4 1.2 1 1.2.4 0 .8-.2 1-.6 7.4-15.8 7.9-51.5-18.6-53.1h-1m-9.3 34.2c-.6 0-1.2 0-1.9.1-1.3.1-1.6 1.5-.5 2.1 3.7 1.9 8.1 8.1 8.1 15.8 0 9-6.7 23.9-23.5 30.1-1.2.4-.9 2 .4 2h.3c19.6-3.1 40.5-19.2 38.8-34.8-1.2-11.4-12.6-15.3-21.7-15.3m73.9-10.6c-.6 0-1.1.5-.9 1.3 4.2 18.3-37.9 30.5-54.4 51.9-.7.9-.1 1.8.7 1.8.3 0 .5-.1.8-.3 17.2-15.4 61.1-14.1 59.6-41.9-.2-3.9-2.3-9.8-4.9-12.3-.3-.4-.6-.5-.9-.5m-24.3-40.5c-1.2 0-1.6 1.4-.5 1.9 3 1.6 6.3 7.6 6.1 12-.6 14.9-12.7 36.8-17.5 50.5-.3 1 .2 1.5.9 1.5.4 0 .8-.2 1-.6 9.5-16.9 28.2-24.2 29-44.9.3-7-3.8-17.9-18.7-20.3-.1-.1-.2-.1-.3-.1m5.7 87c-.3 0-.6.1-.8.5-14.5 20.2-59.7 12.5-113.4 24.6-53.7-12.1-98.9-4.4-113.4-24.6-.2-.3-.5-.5-.8-.5-.6 0-1.1.5-1 1.2.7 14.8 12.5 22.6 30 23.4 1.3.1 2.7.1 4 .1 4.2 0 8.6-.2 13.6-.5 5-.2 10.5-.5 17-.5 3 0 6.2 0 9.6.2 8.5.3 18.7 1.6 29.7 3.9-12.5 3.4-25.4 8.1-38.4 14.5l9 3c13.1-6.4 27.2-11.3 40.7-14.9 13.5 3.5 27.6 8.5 40.7 14.9l9-3c-13-6.4-25.9-11.1-38.4-14.5 11-2.3 21.2-3.6 29.7-3.9 3.4-.1 6.6-.2 9.6-.2 6.5 0 12 .2 17 .5 5 .2 9.4.5 13.6.5 1.4 0 2.7 0 4-.1 17.5-.7 29.3-8.5 30-23.4 0-.7-.5-1.2-1-1.2"/><path fill="#fff" d="M268.4 139.1h-34c2.1 3.9 2.6 7.8 2.6 13.2 0 10.5-8.6 19.1-19.1 19.1-1.1 0-2.2-.1-3.3-.3v-83l-51.1 3.7v3.4c8.6.5 12.6 5.4 12.6 14.7v57.9c-.6 7-4.6 10.7-12.6 11.5v3.3h62.3c24.8 0 42.8-17.7 42.8-39.6 0-1.3-.1-2.6-.2-3.9M142 167.9V88.1l-51.1 3.7v3.4c8.7.5 12.6 5.4 12.6 14.7v25c-8.3-6-20.1-9.8-33.4-9.8-25 0-45.2 13.4-45.2 30s20.2 30 45.2 30c13.2 0 25.1-3.8 33.4-9.8v7.4h51.1v-3.3c-8-.8-12-4.5-12.6-11.5m-54.4-.1c-11.6 0-21.1-5.7-21.1-12.6 0-7 9.4-12.6 21.1-12.6 6.3 0 12 1.7 15.8 4.3v16.6c-3.8 2.6-9.5 4.3-15.8 4.3M97.6 67l-.1.1-.9 2.3c-.2.4-.2.8-.2 1 0 .3.1.5.6.5h.2c.2 0 .2 0 .2.1s-.1.2-.3.2c-.5 0-1.2-.1-1.7-.1-.2 0-1.1.1-1.9.1-.2 0-.3 0-.3-.2 0-.1.1-.1.2-.1h.5c.8-.1 1.1-.7 1.4-1.5l4.1-10.3c.2-.5.3-.7.4-.7.1 0 .2.1.4.5.4.9 3 7.6 4.1 10 .6 1.5 1.1 1.7 1.4 1.8.2 0 .5.1.7.1.1 0 .2 0 .2.1s-.1.2-.8.2h-3.1c-.3 0-.5 0-.5-.1s.1-.1.2-.2c.1 0 .2-.2.1-.4l-1.3-3.5-.2-.1h-3.4zm3.3-.8l.1-.2-1.5-4-.1-.1v.1l-1.5 4 .1.1h2.9zM110 69c0 1.3.2 1.7.6 1.8.3.1.6.1.9.1.2 0 .3 0 .3.1s-.1.2-.4.2c-1.1 0-1.7-.1-2-.1-.2 0-.9.1-1.8.1-.2 0-.3 0-.3-.2 0-.1.1-.1.3-.1.2 0 .5 0 .7-.1.4-.1.5-.6.5-2l.1-9.7c0-.3 0-.6.2-.6s.3.2.6.5c.2.2 2.7 2.9 5.1 5.2 1.1 1.1 3.3 3.5 3.6 3.7h.1l-.2-7.3c0-1-.2-1.3-.5-1.5-.3-.1-.6-.1-.9-.1-.2 0-.3-.1-.3-.2s.2-.1.4-.1h3.6c.2 0 .4 0 .4.1s-.1.2-.3.2h-.5c-.5.1-.6.5-.6 1.4l-.2 10.3c0 .4-.1.5-.2.5-.2 0-.4-.2-.6-.3l-4.8-4.8c-1.8-1.8-3.6-3.8-3.9-4.1h-.1l.2 7zm15.8 0c0 1.3.3 1.7.6 1.8.3.1.6.1.9.1.2 0 .3 0 .3.1s-.1.2-.4.2c-1.1 0-1.7-.1-2-.1-.1 0-.9.1-1.8.1-.2 0-.4 0-.4-.2 0-.1.1-.1.3-.1.2 0 .5 0 .7-.1.4-.1.5-.6.5-2l.1-9.7c0-.3 0-.6.2-.6s.3.2.6.5c.2.2 2.7 2.9 5.1 5.2 1.1 1.1 3.3 3.5 3.6 3.7h.1l-.2-7.3c0-1-.2-1.3-.6-1.5-.2-.1-.6-.1-.9-.1-.2 0-.3-.1-.3-.2s.2-.1.4-.1h3.6c.2 0 .4 0 .4.1s-.1.2-.3.2h-.5c-.4.1-.6.5-.6 1.4l-.2 10.3c0 .4-.1.5-.2.5-.2 0-.4-.2-.5-.3l-4.8-4.8c-1.8-1.8-3.6-3.8-3.9-4.1l.2 7zm13.4-4c0-2.8 1.9-6.4 6.8-6.4 4.1 0 6.6 2.4 6.6 6.1 0 3.7-2.6 6.7-6.8 6.7-4.7.1-6.6-3.4-6.6-6.4zm11.1.4c0-3.7-2.1-5.9-4.8-5.9-1.9 0-4 1-4 5.1 0 3.4 1.9 6.1 5 6.1 1.2-.1 3.8-.6 3.8-5.3zm11.3-1.7v-2.2c0-.4 0-.6-.2-.6-.3 0-1.5.6-1.9.8l-.2.1s-.1-.1-.1-.2.1-.2.2-.2 3.2-2.1 3.8-2.5c.1-.1.3-.2.4-.2.2 0 .2.2.2.4 0 .1-.1 1.7-.1 4.2v3c0 1.6 0 3 .1 3.7.1.5.1.8.7.9.2.1.9.1 1.1.1.1 0 .1 0 .1.2 0 .1-.1.1-.3.1-1.2 0-2.3-.1-2.7-.1-.4 0-1.7.1-2.8.1-.2 0-.3 0-.3-.1s.1-.2.1-.2c.2 0 1 0 1.3-.1.5-.1.6-.4.7-.9.1-.7.1-2.1.1-3.7v-2.6zm5.6 4.6c0-1.8 1.4-3 3-3.7-1.4-.7-2.4-1.6-2.4-3 0-1.3 1.1-3 3.9-3 2 0 3.4.9 3.4 2.5 0 1.7-1.5 2.7-2.4 3 1.2.6 3 1.6 3 3.7 0 1.9-1.6 3.6-4.3 3.6-2.5.1-4.2-1.1-4.2-3.1zm4.2 2.4c1.3 0 2.3-1 2.3-2.5 0-1.6-1.3-2.4-2.8-3.3-.9.5-1.9 1.5-1.9 3.2 0 1.5 1.1 2.6 2.4 2.6zm.1-11.3c-1.4 0-2 1-2 1.9 0 1 .7 1.7 2.2 2.5.5-.2 1.6-.9 1.6-2.5 0-1.2-.8-1.9-1.8-1.9zm6.2 8.9c0-1.8 1.4-3 3-3.7-1.4-.7-2.4-1.6-2.4-3 0-1.3 1.1-3 3.9-3 2 0 3.3.9 3.3 2.5 0 1.7-1.5 2.7-2.4 3 1.2.6 3 1.6 3 3.7 0 1.9-1.6 3.6-4.3 3.6-2.4.1-4.1-1.1-4.1-3.1zm4.2 2.4c1.3 0 2.3-1 2.3-2.5 0-1.6-1.3-2.4-2.8-3.3-.9.5-1.9 1.5-1.9 3.2 0 1.5 1.1 2.6 2.4 2.6zm.1-11.3c-1.4 0-2 1-2 1.9 0 1 .7 1.7 2.2 2.5.5-.2 1.6-.9 1.6-2.5 0-1.2-.8-1.9-1.8-1.9zm6.1 7.4c0-3.2 2.5-6.6 6.1-8 .1-.1.3-.1.3-.1.1 0 .2.1.2.1 0 .2-.2.3-.4.4-1.9 1.1-4.2 3.7-4.2 7.6 0 1.9.8 3.9 2.5 3.9 1.1 0 2.1-.8 2.1-2.7 0-2.3-1.2-3.3-2.3-3.3-.4 0-.6.1-.8.1-.1 0-.3.1-.4.1-.1 0-.1-.1-.1-.2s.1-.2.2-.3c.5-.3 1.2-.6 2.1-.6 2.3 0 3.3 1.9 3.3 3.3 0 2.5-1.9 4.2-4.3 4.2-2.6.2-4.3-1.6-4.3-4.5z"/><path fill="#EB2135" d="M187.5 129.8c-.4-.5-1-.8-1.6-.8-1.4 0-2.2 1.2-2.4 2.3-.3 2 1 3.9 2.4 4.4-.9 4.8-5.3 5.2-6.7 5.2-2 0-4.6-.9-8.1-2.5l-1-.4c-2.2-.9-4.2-1.9-6.9-1.9-2.4 0-4.6.9-6.6 2.5-1.9 1.6-3.3 3.7-4 6.1l-.1.2h2.1v-.1c.9-2.1 3.1-4.4 5.4-4.4 2.1 0 4.9 1.6 7.4 3 .6.3 1.1.6 1.6.9-1.3 9.6-12 13.2-18.4 13.2-4.4 0-8-1.4-10.3-4.2-2.3-2.8-3.1-6.6-2.3-11.1 1-5.5 4.4-9.9 10-12.7 1.5 2 4.2 3.3 6.8 3.3 2.2 0 5.6-.9 6-3.4.2-.9 0-1.7-.5-2.3-1.2-1.4-3.8-1.6-4.9-1.6-1.7 0-3.6.3-5.4.8-.3-.6-.2-1.5-.1-2.3 1-5.5 6.6-8.5 11.3-8.5 1 0 4.1.5 5.1 1.7.3.3.4.7.3 1.1-.1.4 0 .8.2 1 .1.2.4.2.6.2 1 0 1.1-.4 2.8-6.3v-.1l-.1-.1c-2.2-1.2-5.1-1.9-7.8-1.9-7 0-14.8 3.9-16.2 11.2-.3 1.9-.1 3.7.7 5.1-3.8 1.7-7.3 4.1-9.9 6.9-3 3.2-4.9 6.8-5.6 10.6-.8 4.4 0 8 2.3 10.8 2.8 3.3 7.6 5.1 13.6 5.1 5.3 0 10.6-1.4 14.9-3.9 4.9-2.9 8.4-7 10-12 1.4.4 2.6.6 3.8.6 2.6 0 5.5-1.2 7.8-3.3 2.3-2.1 3.9-4.8 4.3-7.4.5-1.3.5-3.8-.5-5m-32.2 1c-1.8 0-3.2-.7-4.3-2.2 1.1-.4 2.6-.7 3.9-.7.9 0 2.2.2 2.7.8.2.2.2.5.2.8-.2 1.2-2.3 1.3-2.5 1.3"/><path fill="#B62B33" d="M163.3 136.2c-2.4 0-4.6.9-6.6 2.5-1.9 1.6-3.3 3.7-4 6.1l-.1.2h2.1v-.1c.9-2.1 3.1-4.4 5.4-4.4 2.1 0 4.9 1.6 7.4 3 .6.3 1.1.6 1.6.9-1.3 9.6-12 13.2-18.4 13.2-3.6 0-6.6-.9-8.8-2.7v5.5c1.7.4 3.5.6 5.4.6 5.3 0 10.6-1.4 14.9-3.9 4.9-2.9 8.4-7 10-12 1.4.4 2.6.6 3.8.6v-5.3c-1.4-.4-3.1-1.1-5-1.9l-1-.4c-2-1-4-1.9-6.7-1.9m-12.3-7.6c1.1-.4 2.6-.7 3.9-.7.9 0 2.2.2 2.7.8.1.2.2.3.2.6v.2c-.2 1.3-2.3 1.4-2.5 1.4-1.8-.1-3.2-.9-4.3-2.3m11.5-17.3c-7 0-14.8 3.9-16.2 11.2-.1.5-.1 1-.1 1.6 0 1.3.3 2.5.8 3.5-1.8.8-3.4 1.7-5 2.8v4c1.6-1.9 3.7-3.4 6.2-4.7 1.5 2 4.2 3.3 6.8 3.3 2.2 0 5.6-.9 6-3.4 0-.2.1-.4.1-.6 0-.6-.2-1.2-.6-1.7-1.2-1.4-3.8-1.6-4.9-1.6-1.7 0-3.6.3-5.4.8-.2-.3-.2-.7-.2-1.1 0-.4.1-.9.1-1.3 1-5.5 6.6-8.5 11.3-8.5 1 0 4.1.5 5.1 1.7.2.3.3.6.3.9v.6c0 .3.1.5.2.6.1.2.4.2.6.2 1 0 1.1-.4 2.8-6.3v-.1l-.1-.1c-2.2-1.2-5.1-1.8-7.8-1.8m23.3 17.7c-1.4 0-2.2 1.2-2.4 2.3 0 .2-.1.4-.1.6 0 1.7 1.2 3.3 2.5 3.8-.9 4.8-5.3 5.2-6.7 5.2-.9 0-1.9-.2-3.1-.5v5.3c2.6 0 5.5-1.2 7.8-3.3 2.3-2.1 3.9-4.8 4.3-7.4.1-.4.1-1 .1-1.6 0-1.3-.2-2.7-1-3.5-.2-.6-.7-.9-1.4-.9m-43.8 1.3c-1.8 1.2-3.5 2.6-4.9 4.1-3 3.2-4.9 6.8-5.6 10.6-.2 1.1-.3 2.1-.3 3.1 0 3 .9 5.6 2.6 7.7 1.9 2.2 4.7 3.8 8.2 4.6v-5.5c-.5-.4-1-.9-1.5-1.4-1.7-2.1-2.6-4.8-2.6-7.9 0-1 .1-2.1.3-3.2.5-3 1.8-5.7 3.8-8v-4.1"/><path fill="#EB2135" d="M165.9 50.6c-.8.1-.6 1.3.1 1.2 16.7-1.9 24.1-11 31.4-10.9 7.3.1 10.7 4.5 10.5 7.4 0 .7.8.8 1.1.1 2.4-7-.3-14.7-11-14.2-10.2.3-19.1 14.2-32.1 16.4m-40 0c.8.1.7 1.3-.1 1.2-16.7-1.9-24.1-11-31.4-10.9-7.3.1-10.7 4.5-10.5 7.4.1.7-.8.8-1.1.1-2.5-7 .2-14.7 10.9-14.2 10.4.3 19.3 14.2 32.2 16.4M167 23.9c-5.1 0-8.2 4.2-8.2 7.2 0 2.3.4 3.3 1.3 4.7.3.4.7.5 1.1.3.4-.2.6-.6.5-1.1-.5-1.5-.3-3.1.6-4.3.8-1.1 2-1.7 3.3-1.7 3.2 0 5.3 3.3 5.3 6.4 0 2.7-3.1 10.5-12.4 10.5-3.7 0-7.2-1.4-10.1-4.1 4.8-5.4 6.1-12.6 5.9-17.3-.4-6.3-4.3-13.3-7.6-16-.2-.2-.4-.3-.6-.3-.2 0-.4.1-.6.3-3.3 2.8-7.2 9.7-7.6 16-.3 4.6 1 11.9 5.8 17.3-2.9 2.6-6.5 4.1-10.1 4.1-9.3 0-12.3-7.8-12.3-10.5 0-3.1 2-6.4 5.3-6.4 1.3 0 2.5.6 3.3 1.7.9 1.2 1.1 2.8.7 4.3-.1.4.1.9.5 1.1.4.2.8.1 1.1-.3.9-1.4 1.3-2.3 1.3-4.7 0-3-3.1-7.2-8.2-7.2-5.3 0-9.6 4.8-9.6 10.7 0 3.2 1.6 6.7 4.4 9.4 3.2 3.1 7.5 4.8 12.1 4.8 5.6-.1 10.3-1.6 14-4.6 3.7 3 8.4 4.6 14 4.6 4.6.1 8.9-1.6 12.1-4.8 2.8-2.7 4.4-6.2 4.4-9.4-.1-5.9-4.4-10.7-9.7-10.7m-16.6 0c.2 5.8-1.3 11.1-4.3 15.2-3-4.1-4.5-9.4-4.3-15.2.2-5.2 1.5-9 4.3-13.1 2.8 4.1 4.1 7.9 4.3 13.1"/><path fill="#B62B33" d="M198.9 34.1h-.9c-10.3.4-19.2 14.3-32.1 16.5-.4.1-.5.3-.5.6s.2.6.5.6h.1c16.6-1.9 24.1-10.9 31.3-10.9h.1c7.1.1 10.5 4.3 10.5 7.1v.3c0 .3.2.5.5.5.2 0 .5-.1.6-.5.5-1.6.8-3.1.8-4.7 0-5.1-3.2-9.5-10.9-9.5m-106 0c-7.7 0-10.9 4.4-10.9 9.5 0 1.5.3 3.2.9 4.7.1.3.3.5.6.5s.5-.2.5-.5v-.4c0-2.8 3.4-7 10.5-7.1h.1c7.3 0 14.7 9 31.3 10.9h.1c.4 0 .6-.3.6-.6s-.2-.5-.5-.6C113.2 48.3 104.3 34.4 94 34c-.5.1-.8.1-1.1.1m48.9-9.1v-1.1c.2-5.2 1.5-9 4.3-13.1 2.8 4.1 4.1 7.9 4.3 13.1V25c0 5.4-1.5 10.3-4.3 14.1-2.8-3.8-4.3-8.7-4.3-14.1m4.3-16.7c-.2 0-.4.1-.6.3-3.3 2.8-7.2 9.7-7.6 16v1.3c0 4.6 1.5 11 5.9 15.9-2.9 2.6-6.5 4.1-10.1 4.1-9.3 0-12.3-7.8-12.3-10.5 0-3.1 2-6.4 5.3-6.4 1.3 0 2.5.6 3.3 1.7.6.8.9 1.8.9 2.8 0 .5-.1 1-.2 1.5v.3c0 .3.2.6.5.8.1.1.3.1.4.1.3 0 .5-.1.7-.4.9-1.4 1.3-2.3 1.3-4.7 0-3-3.1-7.2-8.2-7.2-5.3 0-9.6 4.8-9.6 10.7 0 3.2 1.6 6.7 4.4 9.4 3.1 3.1 7.3 4.8 11.8 4.8h.3c5.6-.1 10.3-1.6 14-4.6 3.7 3 8.4 4.6 14 4.6h.3c4.5 0 8.7-1.7 11.8-4.8 2.8-2.7 4.4-6.2 4.4-9.4 0-5.9-4.3-10.7-9.6-10.7-5.1 0-8.2 4.2-8.2 7.2 0 2.3.4 3.3 1.3 4.7.2.3.4.4.7.4.1 0 .3 0 .4-.1.3-.1.5-.5.5-.8v-.2c-.2-.5-.2-1.1-.2-1.6 0-1 .3-1.9.9-2.7.8-1.1 2-1.7 3.3-1.7 3.2 0 5.3 3.3 5.3 6.4 0 2.7-3.1 10.5-12.4 10.5-3.7 0-7.2-1.4-10.1-4.1 4.4-4.9 5.9-11.4 5.9-16v-1.2c-.4-6.3-4.3-13.2-7.6-16-.5-.3-.7-.4-.9-.4"/><path fill="#FFE3B2" d="M198 31.7c-10.3.4-19.2 14.3-32.1 16.5-.8.1-.6 1.2.1 1.2 16.7-1.9 24.1-11 31.4-10.9 7.3.1 10.7 4.5 10.5 7.3 0 .7.8.8 1.1.1 2.4-7-.3-14.6-11-14.2zm-72.1 16.5c-12.9-2.2-21.8-16-32.1-16.5-10.7-.5-13.4 7.2-10.9 14.2.2.7 1.1.5 1.1-.1-.2-2.8 3.2-7.3 10.5-7.3 7.3-.1 14.7 9 31.4 10.9.6 0 .8-1.1 0-1.2zm41-26.6c-5.1 0-8.2 4.2-8.2 7.2 0 2.3.4 3.3 1.3 4.7.3.4.7.5 1.1.3.4-.2.6-.7.5-1.1-.5-1.5-.3-3.1.6-4.3.8-1.1 2-1.7 3.3-1.7 3.2 0 5.3 3.3 5.3 6.4 0 2.7-3 10.5-12.4 10.5-3.7 0-7.2-1.4-10.1-4.1 4.8-5.4 6.1-12.6 5.8-17.3-.4-6.3-4.3-13.2-7.6-16-.1-.2-.3-.3-.7-.3-.3 0-.5.2-.6.3-3.3 2.7-7.2 9.6-7.6 16-.3 4.6 1.1 11.9 5.8 17.3-2.9 2.6-6.5 4.1-10.1 4.1-9.3 0-12.3-7.8-12.3-10.5 0-3.1 2-6.4 5.3-6.4 1.3 0 2.5.6 3.3 1.7.9 1.2 1.1 2.8.7 4.3-.2.5.1.9.5 1.1.4.2.8.1 1.1-.3.9-1.4 1.3-2.3 1.3-4.7 0-3-3.1-7.2-8.1-7.2-5.3 0-9.6 4.8-9.6 10.7 0 3.2 1.6 6.7 4.4 9.4 3.2 3.1 7.5 4.8 12 4.8 5.6-.1 10.3-1.6 14-4.6 3.7 3 8.4 4.6 14 4.6 4.6.1 8.9-1.6 12.1-4.8 2.8-2.7 4.4-6.2 4.4-9.4.2-6-4.2-10.7-9.5-10.7zm-16.5 0c.2 5.8-1.3 11.1-4.3 15.2-3-4.1-4.5-9.4-4.3-15.2.2-5.2 1.5-9.1 4.3-13.1 2.8 4 4 7.8 4.3 13.1zm-3.7-15.4zm39.5 122.2c-.4-.5-1-.7-1.6-.7-1.4 0-2.2 1.2-2.4 2.3-.3 2 1 3.9 2.4 4.4-.9 4.9-5.7 5.2-6.7 5.2-2 0-4.5-.9-8-2.5l-1-.4c-2.2-1-4.2-1.9-6.9-1.9-4.7 0-9.1 3.6-10.6 8.7l-.1.2h2.1v-.1c.9-2.1 3-4.4 5.4-4.4 2.1 0 4.9 1.6 7.4 3 .6.3 1.1.6 1.6.9-1.3 9.7-12 13.3-18.4 13.3-4.4 0-8-1.4-10.2-4.2-2.3-2.8-3.1-6.6-2.3-11.1 1-5.5 4.4-9.9 9.9-12.7 1.5 2 4.1 3.3 6.8 3.3 2.2 0 5.5-.9 6-3.4.2-.9 0-1.7-.6-2.3-1.2-1.4-3.8-1.6-4.9-1.6-1.7 0-3.5.3-5.4.8-.3-.6-.2-1.5-.1-2.3 1-5.6 6.6-8.5 11.3-8.5 1 0 4.1.5 5.1 1.7.3.3.4.7.3 1.1-.1.4 0 .7.1 1 .2.2.4.3.6.3 1 0 1.1-.5 2.8-6.3v-.1l-.1-.1c-2.2-1.2-5.1-1.8-7.8-1.8-7 0-14.9 3.9-16.2 11.2-.3 1.9-.1 3.7.7 5.1-3.8 1.7-7.3 4.1-9.9 6.9-3.1 3.2-4.9 6.8-5.6 10.6-.8 4.4 0 8 2.3 10.8 2.8 3.3 7.6 5.1 13.6 5.1 5.3 0 10.6-1.4 14.9-3.9 4.9-2.9 8.4-7 10-12 1.3.4 2.6.6 3.8.6 2.6 0 5.4-1.2 7.8-3.3 2.3-2.1 3.9-4.8 4.3-7.4.7-1.7.7-4.2-.4-5.5zm-32.1 1c-1.8 0-3.2-.7-4.3-2.2 1.1-.3 2.5-.7 3.9-.7.9 0 2.2.2 2.7.8.2.2.2.5.2.8-.3 1.3-2.3 1.3-2.5 1.3z"/><path fill="#fff" d="M230.3 92.8c0-3.9 3.2-6.8 6.9-6.8s6.9 2.9 6.9 6.8-3.2 6.8-6.9 6.8-6.9-2.9-6.9-6.8zm6.9 5.7c3.1 0 5.5-2.4 5.5-5.7 0-3.2-2.4-5.6-5.5-5.6s-5.6 2.4-5.6 5.6c.1 3.3 2.5 5.7 5.6 5.7zm-1.4-1.8h-1.2v-7.9h3c1.8 0 2.8.7 2.8 2.2 0 1.4-.9 2-2 2.2l2.2 3.5h-1.3l-2.1-3.4h-1.3v3.4zm1.4-4.4c1 0 1.9-.1 1.9-1.3 0-1-.9-1.1-1.7-1.1h-1.6v2.4h1.4z"/></svg>