<?xml version="1.0" encoding="UTF-8" standalone="no"?>
<svg
   xmlns:dc="http://purl.org/dc/elements/1.1/"
   xmlns:cc="http://creativecommons.org/ns#"
   xmlns:rdf="http://www.w3.org/1999/02/22-rdf-syntax-ns#"
   xmlns:svg="http://www.w3.org/2000/svg"
   xmlns="http://www.w3.org/2000/svg"
   xmlns:sodipodi="http://sodipodi.sourceforge.net/DTD/sodipodi-0.dtd"
   xmlns:inkscape="http://www.inkscape.org/namespaces/inkscape"
   width="20"
   height="20"
   viewBox="0 0 5.2916665 5.2916665"
   version="1.1"
   id="svg324"
   inkscape:version="1.0.1 (3bc2e813f5, 2020-09-07)"
   sodipodi:docname="enumerate.svg">
  <defs
     id="defs318" />
  <sodipodi:namedview
     id="base"
     pagecolor="#ffffff"
     bordercolor="#666666"
     borderopacity="1.0"
     inkscape:pageopacity="0.0"
     inkscape:pageshadow="2"
     inkscape:zoom="16"
     inkscape:cx="0.48285755"
     inkscape:cy="10.064677"
     inkscape:document-units="px"
     inkscape:current-layer="layer1"
     inkscape:document-rotation="0"
     showgrid="false"
     inkscape:pagecheckerboard="true"
     units="px"
     inkscape:window-width="1540"
     inkscape:window-height="861"
     inkscape:window-x="26"
     inkscape:window-y="0"
     inkscape:window-maximized="0" />
  <metadata
     id="metadata321">
    <rdf:RDF>
      <cc:Work
         rdf:about="">
        <dc:format>image/svg+xml</dc:format>
        <dc:type
           rdf:resource="http://purl.org/dc/dcmitype/StillImage" />
        <dc:title></dc:title>
      </cc:Work>
    </rdf:RDF>
  </metadata>
  <g
     inkscape:label="Calque 1"
     inkscape:groupmode="layer"
     id="layer1">
    <g
       aria-label="1"
       id="text1293"
       style="font-style:normal;font-weight:normal;font-size:10.5833px;line-height:1.25;font-family:sans-serif;fill:#0488d4;fill-opacity:1;stroke:none;stroke-width:0.264583">
      <path
         d="M 1.3658081,1.8187521 H 0.59531249 V 1.617214 H 0.83870848 V 1.0071737 H 0.59531249 V 0.8188131 q 0.0558106,0 0.10697021,-0.006201 0.0511597,-0.006976 0.0852661,-0.0232544 0.0403076,-0.0193787 0.0604614,-0.0503845 0.0201538,-0.0310059 0.0232544,-0.0775146 H 1.1278381 V 1.617214 h 0.23797 z"
         style="font-style:normal;font-variant:normal;font-weight:bold;font-stretch:normal;font-size:1.5875px;font-family:verdana;-inkscape-font-specification:'verdana Bold';fill:#0488d4;fill-opacity:1;stroke-width:0.264583"
         id="path1335" />
    </g>
    <rect
       id="rect330"
       width="2.6458333"
       height="0.42333332"
       x="1.8520832"
       y="1.0583333"
       style="stroke-width:0.288753" />
    <rect
       id="rect330-4"
       width="2.6458333"
       height="0.42333332"
       x="1.8520833"
       y="2.3812499"
       style="stroke-width:0.288753" />
    <rect
       id="rect330-4-7"
       width="2.6458333"
       height="0.42333332"
       x="1.8520833"
       y="3.7041667"
       style="stroke-width:0.288753" />
    <g
       aria-label="2"
       id="text1293-2"
       style="font-style:normal;font-weight:normal;font-size:10.5833px;line-height:1.25;font-family:sans-serif;fill:#0488d4;fill-opacity:1;stroke:none;stroke-width:0.264583">
      <path
         d="M 1.4353129,3.1610472 H 0.52916664 V 2.9703612 Q 0.63303626,2.895172 0.73690589,2.810681 0.84155067,2.72619 0.90433753,2.6649535 0.99813025,2.5742613 1.0376627,2.5068236 q 0.039532,-0.067438 0.039532,-0.1333252 0,-0.079065 -0.05116,-0.121698 -0.0503845,-0.043408 -0.14572751,-0.043408 -0.0713135,0 -0.15037842,0.029456 -0.0782898,0.029456 -0.14572753,0.075189 H 0.55939735 V 2.0564635 q 0.0550354,-0.02403 0.16200561,-0.048059 0.10774536,-0.024029 0.21549072,-0.024029 0.21704102,0 0.33098752,0.091467 0.1139466,0.090692 0.1139466,0.2573486 0,0.1092956 -0.055035,0.2077392 -0.05426,0.098444 -0.1666565,0.2030884 -0.070538,0.065112 -0.1418518,0.1201477 -0.0713135,0.05426 -0.10154423,0.075964 H 1.4353129 Z"
         style="font-style:normal;font-variant:normal;font-weight:bold;font-stretch:normal;font-size:1.5875px;font-family:verdana;-inkscape-font-specification:'verdana Bold';fill:#0488d4;fill-opacity:1;stroke-width:0.264583"
         id="path1338" />
    </g>
    <g
       aria-label="3"
       id="text1293-2-9"
       style="font-style:normal;font-weight:normal;font-size:10.5833px;line-height:1.25;font-family:sans-serif;fill:#0488d4;fill-opacity:1;stroke:none;stroke-width:0.264583">
      <path
         d="m 1.3570231,3.9444619 q 0.037982,0.032556 0.060461,0.075964 0.022479,0.043408 0.022479,0.1154968 0,0.08139 -0.032556,0.1519287 -0.031781,0.070538 -0.098444,0.1209229 -0.065112,0.048834 -0.153479,0.075189 -0.087592,0.02558 -0.21316529,0.02558 -0.1434021,0 -0.24649658,-0.022479 Q 0.59350379,4.4645852 0.52916664,4.4366799 V 4.183207 h 0.0302307 q 0.0666626,0.040308 0.15890503,0.069763 0.0930176,0.029456 0.16975707,0.029456 0.0449585,0 0.0976685,-0.00698 0.05271,-0.00775 0.0891419,-0.032556 0.02868,-0.019379 0.045734,-0.046509 0.017053,-0.027905 0.017053,-0.07984 0,-0.050385 -0.023254,-0.077515 -0.023254,-0.027905 -0.061236,-0.039532 -0.037982,-0.012402 -0.0914673,-0.013177 -0.0534851,-0.00155 -0.0992188,-0.00155 h -0.063562 V 3.7785806 h 0.0658875 q 0.0604614,0 0.10697021,-0.00388 0.0465088,-0.00388 0.0790649,-0.017828 0.034107,-0.014728 0.05116,-0.038757 0.017053,-0.024805 0.017053,-0.072089 0,-0.034882 -0.017828,-0.055811 -0.017828,-0.021704 -0.044958,-0.034107 -0.030231,-0.013953 -0.0713134,-0.018603 -0.0410828,-0.00465 -0.0705383,-0.00465 -0.0728638,0 -0.15812988,0.02558 -0.0852661,0.024805 -0.16510619,0.072089 H 0.56249794 V 3.3801553 q 0.063562,-0.02558 0.17285766,-0.048834 0.10929565,-0.02403 0.22169189,-0.02403 0.10929561,0 0.19146121,0.019379 0.082165,0.018603 0.1356506,0.050384 0.063562,0.037982 0.094568,0.092242 0.031006,0.05426 0.031006,0.1271241 0,0.096118 -0.059686,0.1720825 -0.059686,0.075189 -0.1573548,0.096118 v 0.010852 q 0.039532,0.00543 0.083716,0.021704 0.044183,0.016278 0.080615,0.047284 z"
         style="font-style:normal;font-variant:normal;font-weight:bold;font-stretch:normal;font-size:1.5875px;font-family:verdana;-inkscape-font-specification:'verdana Bold';fill:#0488d4;fill-opacity:1;stroke-width:0.264583"
         id="path1341" />
    </g>
  </g>
</svg>
