<?xml version="1.0" encoding="UTF-8" standalone="no"?>
<svg
   xmlns:dc="http://purl.org/dc/elements/1.1/"
   xmlns:cc="http://creativecommons.org/ns#"
   xmlns:rdf="http://www.w3.org/1999/02/22-rdf-syntax-ns#"
   xmlns:svg="http://www.w3.org/2000/svg"
   xmlns="http://www.w3.org/2000/svg"
   xmlns:sodipodi="http://sodipodi.sourceforge.net/DTD/sodipodi-0.dtd"
   xmlns:inkscape="http://www.inkscape.org/namespaces/inkscape"
   width="20"
   height="20"
   viewBox="0 0 5.2916665 5.2916665"
   version="1.1"
   id="svg324"
   inkscape:version="1.0.1 (3bc2e813f5, 2020-09-07)"
   sodipodi:docname="underlined-2.svg">
  <defs
     id="defs318" />
  <sodipodi:namedview
     id="base"
     pagecolor="#ffffff"
     bordercolor="#666666"
     borderopacity="1.0"
     inkscape:pageopacity="0.0"
     inkscape:pageshadow="2"
     inkscape:zoom="5.6568542"
     inkscape:cx="-8.0028255"
     inkscape:cy="3.414277"
     inkscape:document-units="px"
     inkscape:current-layer="layer1"
     inkscape:document-rotation="0"
     showgrid="false"
     inkscape:pagecheckerboard="true"
     units="px"
     inkscape:window-width="1540"
     inkscape:window-height="861"
     inkscape:window-x="26"
     inkscape:window-y="0"
     inkscape:window-maximized="0" />
  <metadata
     id="metadata321">
    <rdf:RDF>
      <cc:Work
         rdf:about="">
        <dc:format>image/svg+xml</dc:format>
        <dc:type
           rdf:resource="http://purl.org/dc/dcmitype/StillImage" />
        <dc:title></dc:title>
      </cc:Work>
    </rdf:RDF>
  </metadata>
  <g
     inkscape:label="Calque 1"
     inkscape:groupmode="layer"
     id="layer1">
    <g
       aria-label="S"
       id="text328"
       style="font-style:normal;font-variant:normal;font-weight:normal;font-stretch:normal;font-size:4.23333px;line-height:1.25;font-family:Verdana;-inkscape-font-specification:Verdana;fill:#000000;fill-opacity:1;stroke:none;stroke-width:0.264583">
      <path
         d="m 3.774444,3.2225432 q 0,0.1798338 -0.084749,0.3555335 -0.082682,0.1756998 -0.2335773,0.297656 -0.1653645,0.1322916 -0.3865394,0.2067056 -0.2191079,0.074414 -0.5291662,0.074414 -0.332796,0 -0.5994461,-0.062012 Q 1.6763826,4.032829 1.4014643,3.9108727 V 3.3982429 h 0.028939 q 0.2335773,0.1943032 0.5395015,0.2997231 0.3059243,0.1054198 0.5746415,0.1054198 0.3803382,0 0.5911779,-0.1426268 0.2129067,-0.1426269 0.2129067,-0.3803383 0,-0.2046385 -0.1012857,-0.3017901 Q 3.1481262,2.881479 2.9434877,2.8277356 2.7884585,2.7863945 2.6065576,2.7595227 2.4267238,2.732651 2.2241524,2.6913099 1.8148754,2.6044936 1.616438,2.395721 1.4200678,2.1848813 1.4200678,1.8479512 q 0,-0.3865393 0.3265947,-0.632519 0.3265948,-0.24804662 0.8288893,-0.24804662 0.3245277,0 0.595312,0.0620116 0.2707843,0.062012 0.4795569,0.1529622 v 0.483691 H 3.6214819 Q 3.4457822,1.5172224 3.1584615,1.4200707 2.8732078,1.3208521 2.5734848,1.3208521 q -0.3286619,0 -0.5291663,0.1364256 -0.1984373,0.1364257 -0.1984373,0.3513995 0,0.1922362 0.099219,0.3017901 0.099219,0.1095539 0.3493324,0.1674315 0.1322915,0.028939 0.3762041,0.07028 0.2439125,0.041341 0.4134111,0.084749 0.3431312,0.09095 0.5167639,0.2749184 0.1736326,0.1839679 0.1736326,0.5146968 z"
         style="font-style:normal;font-variant:normal;font-weight:normal;font-stretch:normal;font-size:4.23333px;font-family:Verdana;-inkscape-font-specification:Verdana;stroke-width:0.264583"
         id="path1288" />
    </g>
    <rect
       id="rect330"
       width="2.8277345"
       height="0.31419271"
       x="1.190625"
       y="4.5007548"
       style="stroke-width:0.25717" />
  </g>
</svg>
